<svg width="21" height="24" viewBox="0 0 21 24" fill="none" xmlns="http://www.w3.org/2000/svg">
<circle cx="10.5" cy="10.5" r="10.5" fill="url(#paint0_linear_110_4002)"/>
<path d="M9.75203 7H11.192V17H9.75203V7ZM9.49203 3.96C9.49203 3.64 9.5787 3.38 9.75203 3.18C9.9387 2.98 10.1787 2.88 10.472 2.88C10.7654 2.88 11.0054 2.98 11.192 3.18C11.392 3.36667 11.492 3.62667 11.492 3.96C11.492 4.28 11.392 4.53333 11.192 4.72C11.0054 4.89333 10.7654 4.98 10.472 4.98C10.1787 4.98 9.9387 4.88667 9.75203 4.7C9.5787 4.51333 9.49203 4.26667 9.49203 3.96Z" fill="#F6F6F6"/>
<defs>
<linearGradient id="paint0_linear_110_4002" x1="8.7675" y1="-1.25289e-07" x2="13.3841" y2="23.4743" gradientUnits="userSpaceOnUse">
<stop stop-color="#2563DA"/>
<stop offset="1" stop-color="#0F3D98"/>
</linearGradient>
</defs>
</svg>
