<svg width="22" height="26" viewBox="0 0 22 26" fill="none" xmlns="http://www.w3.org/2000/svg">
<path d="M13.4683 8.68061C13.7467 5.22856 10.2585 2.049 8.49596 0.974381C9.30968 3.51947 8.78139 6.09308 8.21045 7.69368C7.63951 9.29428 5.87329 11.9186 5.92698 11.5355C5.75135 10.6392 5.07578 8.61613 3.7785 7.69368C4.21444 10.6791 1.95706 13.5666 1.36008 16.3878C0.079928 22.4377 5.47302 25.5217 11.0648 25.5217C16.6566 25.5217 20.4551 21.1609 20.6261 16.9037C20.908 9.88345 17.3754 5.69358 14.2781 3.7168C15.0675 5.81891 14.3457 7.81239 13.4683 8.68061Z" fill="url(#paint0_linear_110_3984)"/>
<path d="M10.5173 22.9145C12.8606 22.9057 15.6718 21.3175 15.9259 18.7107C16.2195 15.6999 14.1256 13.4893 13.322 12.6103C12.5184 11.7313 10.5132 10.0824 10.5132 10.0824C10.8501 11.2474 8.80354 13.6525 7.95572 14.6032C6.79311 15.9069 6.02545 16.943 6.0191 18.7896C6.01061 21.2565 8.17399 22.9233 10.5173 22.9145Z" fill="url(#paint1_linear_110_3984)"/>
<defs>
<linearGradient id="paint0_linear_110_3984" x1="19.0708" y1="13.5289" x2="1.88247" y2="12.015" gradientUnits="userSpaceOnUse">
<stop stop-color="#D03508"/>
<stop offset="1" stop-color="#FF7A00"/>
</linearGradient>
<linearGradient id="paint1_linear_110_3984" x1="13.8911" y1="17.4062" x2="6.68537" y2="16.8012" gradientUnits="userSpaceOnUse">
<stop stop-color="#FF6B01"/>
<stop offset="1" stop-color="#FFBA0A"/>
</linearGradient>
</defs>
</svg>
