<svg width="31" height="19" viewBox="0 0 31 19" fill="none" xmlns="http://www.w3.org/2000/svg">
<rect width="2.36338" height="29.9361" rx="1.18169" transform="matrix(-4.37114e-08 1 1 4.37114e-08 0.894531 8.42383)" fill="url(#paint0_linear_110_3992)"/>
<rect x="6.41016" y="0.545898" width="3.15117" height="17.9119" rx="1.57558" fill="url(#paint1_linear_110_3992)"/>
<rect x="3.30078" y="4.52637" width="3.15117" height="10.9462" rx="1.57558" fill="url(#paint2_linear_110_3992)"/>
<rect width="3.15117" height="17.9119" rx="1.57558" transform="matrix(-1 0 0 1 25.3164 0.545898)" fill="url(#paint3_linear_110_3992)"/>
<rect width="3.15117" height="10.9462" rx="1.57558" transform="matrix(-1 0 0 1 28.4258 4.52637)" fill="url(#paint4_linear_110_3992)"/>
<defs>
<linearGradient id="paint0_linear_110_3992" x1="1.18169" y1="0" x2="1.18169" y2="29.9361" gradientUnits="userSpaceOnUse">
<stop stop-color="#C0CBF0"/>
<stop offset="1" stop-color="#8990A9"/>
</linearGradient>
<linearGradient id="paint1_linear_110_3992" x1="6.41016" y1="16.4676" x2="9.56132" y2="16.4676" gradientUnits="userSpaceOnUse">
<stop stop-color="#4362CE"/>
<stop offset="1" stop-color="#032EC5"/>
</linearGradient>
<linearGradient id="paint2_linear_110_3992" x1="3.30078" y1="14.2563" x2="6.45195" y2="14.2563" gradientUnits="userSpaceOnUse">
<stop stop-color="#4362CE"/>
<stop offset="1" stop-color="#032EC5"/>
</linearGradient>
<linearGradient id="paint3_linear_110_3992" x1="0" y1="15.9217" x2="3.15117" y2="15.9217" gradientUnits="userSpaceOnUse">
<stop stop-color="#4362CE"/>
<stop offset="1" stop-color="#032EC5"/>
</linearGradient>
<linearGradient id="paint4_linear_110_3992" x1="0" y1="9.72993" x2="3.15117" y2="9.72993" gradientUnits="userSpaceOnUse">
<stop stop-color="#4362CE"/>
<stop offset="1" stop-color="#032EC5"/>
</linearGradient>
</defs>
</svg>
