<svg width="150" height="48" viewBox="0 0 150 48" fill="none" xmlns="http://www.w3.org/2000/svg">
<path fill-rule="evenodd" clip-rule="evenodd" d="M33.7068 4.20922L8.11387 20.0128L9.68883 22.5633L33.7068 7.7323L33.7068 4.20922Z" fill="white"/>
<path d="M30.1758 24.2787C30.1758 21.7954 28.1627 19.7822 25.6793 19.7822H19.5841C17.1008 19.7822 15.0877 21.7954 15.0877 24.2787V30.3739C15.0877 32.8572 17.1008 34.8703 19.5841 34.8703H25.6793C28.1627 34.8703 30.1758 32.8572 30.1758 30.3739V24.2787Z" fill="#FF9EC7"/>
<path fill-rule="evenodd" clip-rule="evenodd" d="M19.5841 21.281H25.6793C27.3349 21.281 28.677 22.6231 28.677 24.2787V30.3739C28.677 32.0294 27.3349 33.3715 25.6793 33.3715H19.5841C17.9286 33.3715 16.5865 32.0294 16.5865 30.3739V24.2787C16.5865 22.6231 17.9286 21.281 19.5841 21.281ZM25.6793 19.7822C28.1627 19.7822 30.1758 21.7954 30.1758 24.2787V30.3739C30.1758 32.8572 28.1627 34.8703 25.6793 34.8703H19.5841C17.1008 34.8703 15.0877 32.8572 15.0877 30.3739V24.2787C15.0877 21.7954 17.1008 19.7822 19.5841 19.7822H25.6793Z" fill="#D23577"/>
<path d="M0 24.2787C0 21.7954 2.01313 19.7822 4.49645 19.7822H10.5916C13.075 19.7822 15.0881 21.7954 15.0881 24.2787V30.3739C15.0881 32.8572 13.075 34.8703 10.5916 34.8703H4.49645C2.01313 34.8703 0 32.8572 0 30.3739V24.2787Z" fill="#5D8ACE"/>
<path fill-rule="evenodd" clip-rule="evenodd" d="M10.5916 21.281H4.49645C2.8409 21.281 1.49882 22.6231 1.49882 24.2787V30.3739C1.49882 32.0294 2.8409 33.3715 4.49645 33.3715H10.5916C12.2472 33.3715 13.5893 32.0294 13.5893 30.3739V24.2787C13.5893 22.6231 12.2472 21.281 10.5916 21.281ZM4.49645 19.7822C2.01313 19.7822 0 21.7954 0 24.2787V30.3739C0 32.8572 2.01313 34.8703 4.49645 34.8703H10.5916C13.075 34.8703 15.0881 32.8572 15.0881 30.3739V24.2787C15.0881 21.7954 13.075 19.7822 10.5916 19.7822H4.49645Z" fill="#113D81"/>
<path d="M13.0889 26.2769C13.0889 26.8839 12.5968 27.376 11.9898 27.376C11.3827 27.376 10.8906 26.8839 10.8906 26.2769C10.8906 25.6698 11.3827 25.1777 11.9898 25.1777C12.5968 25.1777 13.0889 25.6698 13.0889 26.2769Z" fill="#0A2754"/>
<path fill-rule="evenodd" clip-rule="evenodd" d="M3.99467 27.0574C4.74965 24.7196 5.06642 22.333 4.89871 21.1876L7.72281 20.7812C7.98315 22.5592 7.51515 25.4345 6.71249 27.92C6.3018 29.1917 5.77603 30.4497 5.14844 31.4928C4.54852 32.4899 3.73389 33.4974 2.65554 33.9708L1.5 31.3842C1.75337 31.2729 2.18723 30.8919 2.69759 30.0437C3.18027 29.2414 3.62654 28.1974 3.99467 27.0574Z" fill="#113D81"/>
<path d="M17.0869 26.2769C17.0869 26.8839 17.579 27.376 18.186 27.376C18.7931 27.376 19.2852 26.8839 19.2852 26.2769C19.2852 25.6698 18.7931 25.1777 18.186 25.1777C17.579 25.1777 17.0869 25.6698 17.0869 26.2769Z" fill="#81224A"/>
<path fill-rule="evenodd" clip-rule="evenodd" d="M26.4311 27.0574C25.6761 24.7196 25.3594 22.333 25.5271 21.1876L22.703 20.7812C22.4426 22.5592 22.9106 25.4345 23.7133 27.92C24.124 29.1917 24.6498 30.4497 25.2773 31.4928C25.8773 32.4899 26.6919 33.4974 27.7702 33.9708L28.9258 31.3842C28.6724 31.2729 28.2385 30.8919 27.7282 30.0437C27.2455 29.2414 26.7992 28.1974 26.4311 27.0574Z" fill="#D23577"/>
<path fill-rule="evenodd" clip-rule="evenodd" d="M13.8711 32.2924C11.1747 32.0334 9.87484 30.2947 9.08799 28.7179L10.4291 28.0487C11.1145 29.4222 12.0663 30.6133 14.0144 30.8005L13.8711 32.2924Z" fill="#113D81"/>
<path fill-rule="evenodd" clip-rule="evenodd" d="M15.8398 32.2924C18.5363 32.0334 19.8361 30.2947 20.6229 28.7179L19.2818 28.0487C18.5965 29.4222 17.6446 30.6133 15.6966 30.8005L15.8398 32.2924Z" fill="#D23577"/>
<path fill-rule="evenodd" clip-rule="evenodd" d="M33.7058 23.4224L4.92518 41.1324L6.50014 43.6829L33.7058 26.9421L33.7058 23.4224Z" fill="white"/>
<path d="M46.32 23.1198H43V34.7998H40.48V23.1198H37.16V20.7998H46.32V23.1198ZM55.3727 24.0398C55.3727 24.3865 55.3327 24.7331 55.2527 25.0798C55.186 25.4131 55.0727 25.7331 54.9127 26.0398C54.7527 26.3331 54.5393 26.5931 54.2727 26.8198C54.0193 27.0465 53.7127 27.2198 53.3527 27.3398V27.4598C53.6727 27.5398 53.9727 27.6598 54.2527 27.8198C54.546 27.9798 54.7993 28.1998 55.0127 28.4798C55.226 28.7465 55.3927 29.0798 55.5127 29.4798C55.646 29.8665 55.7127 30.3265 55.7127 30.8598C55.7127 31.5798 55.586 32.2065 55.3327 32.7398C55.0927 33.2598 54.7593 33.6865 54.3327 34.0198C53.9193 34.3531 53.4327 34.5998 52.8727 34.7598C52.3127 34.9198 51.7193 34.9998 51.0927 34.9998C50.906 34.9998 50.666 34.9998 50.3727 34.9998C50.0793 34.9998 49.7593 34.9865 49.4127 34.9598C49.0793 34.9465 48.7327 34.9198 48.3727 34.8798C48.0127 34.8398 47.6793 34.7798 47.3727 34.6998V20.8998C47.8127 20.8198 48.3527 20.7531 48.9927 20.6998C49.646 20.6331 50.2927 20.5998 50.9327 20.5998C51.5193 20.5998 52.0793 20.6465 52.6127 20.7398C53.1593 20.8331 53.6327 21.0065 54.0327 21.2598C54.446 21.5131 54.7727 21.8665 55.0127 22.3198C55.2527 22.7598 55.3727 23.3331 55.3727 24.0398ZM51.1527 32.8198C51.7127 32.8198 52.1727 32.6398 52.5327 32.2798C52.8927 31.9198 53.0727 31.3931 53.0727 30.6998C53.0727 30.2598 53.0127 29.9131 52.8927 29.6598C52.7727 29.3931 52.6127 29.1931 52.4127 29.0598C52.2127 28.9131 51.9793 28.8198 51.7127 28.7798C51.4593 28.7398 51.1927 28.7198 50.9127 28.7198H49.8927V32.6998C49.9993 32.7398 50.1793 32.7731 50.4327 32.7998C50.6993 32.8131 50.9393 32.8198 51.1527 32.8198ZM50.4727 26.7398C50.6193 26.7398 50.786 26.7331 50.9727 26.7198C51.1727 26.6931 51.3327 26.6665 51.4527 26.6398C51.8393 26.4931 52.166 26.2531 52.4327 25.9198C52.7127 25.5865 52.8527 25.1531 52.8527 24.6198C52.8527 24.2731 52.806 23.9798 52.7127 23.7398C52.6193 23.4998 52.4927 23.3131 52.3327 23.1798C52.1727 23.0331 51.9793 22.9331 51.7527 22.8798C51.5393 22.8131 51.306 22.7798 51.0527 22.7798C50.506 22.7798 50.1193 22.8065 49.8927 22.8598V26.7398H50.4727ZM63.7973 27.3398L63.9973 25.3598H63.8973L63.1373 27.4798L59.1573 34.7998H57.1773V20.7998H59.6973V28.1198L59.4773 30.1598H59.5773L60.3773 27.9798L64.3573 20.7998H66.3173V34.7998H63.7973V27.3398ZM74.4548 28.8798H70.6348V34.7998H68.1148V20.7998H70.6348V26.5598H74.4548V20.7998H76.9748V34.7998H74.4548V28.8798ZM78.7789 20.9398C79.2589 20.8331 79.7856 20.7531 80.3589 20.6998C80.9322 20.6331 81.5056 20.5998 82.0789 20.5998C82.6922 20.5998 83.2922 20.6598 83.8789 20.7798C84.4789 20.8865 85.0122 21.1065 85.4789 21.4398C85.9456 21.7731 86.3256 22.2465 86.6189 22.8598C86.9122 23.4598 87.0589 24.2465 87.0589 25.2198C87.0589 26.0998 86.9322 26.8465 86.6789 27.4598C86.4389 28.0731 86.1122 28.5731 85.6989 28.9598C85.2856 29.3465 84.8056 29.6265 84.2589 29.7998C83.7256 29.9731 83.1722 30.0598 82.5989 30.0598C82.5456 30.0598 82.4589 30.0598 82.3389 30.0598C82.2189 30.0598 82.0922 30.0598 81.9589 30.0598C81.8256 30.0465 81.6922 30.0331 81.5589 30.0198C81.4389 30.0065 81.3522 29.9931 81.2989 29.9798V34.7998H78.7789V20.9398ZM81.2989 27.7198C81.3789 27.7465 81.5256 27.7731 81.7389 27.7998C81.9656 27.8131 82.1189 27.8198 82.1989 27.8198C82.4922 27.8198 82.7722 27.7798 83.0389 27.6998C83.3056 27.6198 83.5389 27.4865 83.7389 27.2998C83.9522 27.0998 84.1189 26.8331 84.2389 26.4998C84.3589 26.1531 84.4189 25.7198 84.4189 25.1998C84.4189 24.7598 84.3589 24.3865 84.2389 24.0798C84.1322 23.7731 83.9789 23.5331 83.7789 23.3598C83.5922 23.1731 83.3722 23.0398 83.1189 22.9598C82.8656 22.8798 82.5989 22.8398 82.3189 22.8398C81.9056 22.8398 81.5656 22.8731 81.2989 22.9398V27.7198ZM87.8339 27.7998C87.8339 25.4265 88.2406 23.6198 89.0539 22.3798C89.8672 21.1398 91.1072 20.5198 92.7739 20.5198C93.6406 20.5198 94.3872 20.6931 95.0139 21.0398C95.6406 21.3731 96.1539 21.8598 96.5539 22.4998C96.9539 23.1265 97.2472 23.8931 97.4339 24.7998C97.6339 25.6931 97.7339 26.6931 97.7339 27.7998C97.7339 30.1731 97.3139 31.9798 96.4739 33.2198C95.6472 34.4598 94.4139 35.0798 92.7739 35.0798C91.8939 35.0798 91.1406 34.9131 90.5139 34.5798C89.9006 34.2331 89.3939 33.7465 88.9939 33.1198C88.5939 32.4798 88.3006 31.7131 88.1139 30.8198C87.9272 29.9131 87.8339 28.9065 87.8339 27.7998ZM90.4739 27.7998C90.4739 28.5065 90.5139 29.1665 90.5939 29.7798C90.6739 30.3798 90.8072 30.8998 90.9939 31.3398C91.1806 31.7798 91.4139 32.1265 91.6939 32.3798C91.9872 32.6331 92.3472 32.7598 92.7739 32.7598C93.5472 32.7598 94.1272 32.3665 94.5139 31.5798C94.9006 30.7931 95.0939 29.5331 95.0939 27.7998C95.0939 27.1198 95.0539 26.4798 94.9739 25.8798C94.8939 25.2665 94.7606 24.7398 94.5739 24.2998C94.4006 23.8465 94.1672 23.4931 93.8739 23.2398C93.5806 22.9731 93.2139 22.8398 92.7739 22.8398C91.2406 22.8398 90.4739 24.4931 90.4739 27.7998ZM104.916 23.1198H102.796C102.702 25.6531 102.576 27.7731 102.416 29.4798C102.256 31.1731 101.949 32.4665 101.496 33.3598C101.336 33.6798 101.149 33.9465 100.936 34.1598C100.736 34.3598 100.529 34.5198 100.316 34.6398C100.116 34.7465 99.909 34.8198 99.6956 34.8598C99.4823 34.9131 99.289 34.9398 99.1156 34.9398C98.8356 34.9398 98.589 34.9131 98.3756 34.8598C98.1623 34.8198 97.9623 34.7531 97.7756 34.6598L98.0556 32.3798C98.2956 32.4731 98.5356 32.4798 98.7756 32.3998C99.0156 32.3065 99.2156 32.0865 99.3756 31.7398C99.5356 31.4465 99.6756 31.0198 99.7956 30.4598C99.9156 29.8865 100.016 29.1531 100.096 28.2598C100.189 27.3665 100.256 26.3065 100.296 25.0798C100.349 23.8531 100.389 22.4265 100.416 20.7998H107.436V34.7998H104.916V23.1198ZM115.248 23.1198H113.128C113.034 25.6531 112.908 27.7731 112.748 29.4798C112.588 31.1731 112.281 32.4665 111.828 33.3598C111.668 33.6798 111.481 33.9465 111.268 34.1598C111.068 34.3598 110.861 34.5198 110.648 34.6398C110.448 34.7465 110.241 34.8198 110.028 34.8598C109.814 34.9131 109.621 34.9398 109.448 34.9398C109.168 34.9398 108.921 34.9131 108.708 34.8598C108.494 34.8198 108.294 34.7531 108.108 34.6598L108.388 32.3798C108.628 32.4731 108.868 32.4798 109.108 32.3998C109.348 32.3065 109.548 32.0865 109.708 31.7398C109.868 31.4465 110.008 31.0198 110.128 30.4598C110.248 29.8865 110.348 29.1531 110.428 28.2598C110.521 27.3665 110.588 26.3065 110.628 25.0798C110.681 23.8531 110.721 22.4265 110.748 20.7998H117.768V34.7998H115.248V23.1198Z" fill="white"/>
</svg>
