<svg width="27" height="26" viewBox="0 0 27 26" fill="none" xmlns="http://www.w3.org/2000/svg">
<path d="M11.9619 1.65196C12.5606 -0.190662 15.1674 -0.190668 15.7661 1.65195L17.4476 6.82709C17.7154 7.65113 18.4833 8.20905 19.3497 8.20905H24.7912C26.7286 8.20905 27.5342 10.6883 25.9668 11.8271L21.5645 15.0255C20.8636 15.5348 20.5702 16.4375 20.838 17.2616L22.5195 22.4367C23.1182 24.2793 21.0092 25.8116 19.4418 24.6728L15.0396 21.4744C14.3386 20.9651 13.3894 20.9651 12.6884 21.4744L8.28621 24.6728C6.71878 25.8116 4.60981 24.2793 5.20852 22.4367L6.89002 17.2616C7.15777 16.4375 6.86445 15.5348 6.16348 15.0255L1.76125 11.8271C0.193824 10.6883 0.999371 8.20905 2.93682 8.20905H8.37828C9.24473 8.20905 10.0126 7.65113 10.2804 6.82709L11.9619 1.65196Z" fill="url(#paint0_linear_110_3981)"/>
<defs>
<linearGradient id="paint0_linear_110_3981" x1="0.4883" y1="13.3774" x2="27.2076" y2="12.4517" gradientUnits="userSpaceOnUse">
<stop stop-color="#BE66F4"/>
<stop offset="1" stop-color="#5612AD"/>
</linearGradient>
</defs>
</svg>
