<svg width="30" height="30" viewBox="0 0 30 30" fill="none" xmlns="http://www.w3.org/2000/svg">
<path fill-rule="evenodd" clip-rule="evenodd" d="M11.8125 20.3437C12.75 20.9063 13.875 21.1875 15 21.1875C18.4687 21.1875 21.1875 18.375 21.1875 15.0937C21.1875 13.4063 20.625 11.9062 19.4063 10.6875C18.1875 9.5625 16.6875 8.90625 15 8.90625C11.625 8.90625 8.81249 11.7188 8.81249 15.0937C8.81249 16.2188 9.09375 17.3438 9.74999 18.375L9.93751 18.6563L9.28124 20.9063L11.625 20.25L11.8125 20.3437ZM17.0625 15.9375C17.25 15.9375 18.1875 16.4062 18.375 16.5C18.4042 16.5146 18.4334 16.5269 18.4622 16.5391C18.6186 16.6051 18.7646 16.6667 18.8438 17.0625C18.9375 17.0625 18.9375 17.4375 18.75 17.9062C18.6563 18.2812 17.9063 18.75 17.5313 18.75C17.4677 18.75 17.4069 18.7554 17.3419 18.7611C17.0233 18.7893 16.605 18.8263 15.2812 18.2812C13.6383 17.6241 12.4992 16.0312 12.1794 15.5839C12.1342 15.5207 12.1053 15.4804 12.0937 15.4688C12.0778 15.4368 12.0455 15.3859 12.0029 15.3187C11.7955 14.9912 11.3438 14.2779 11.3438 13.5C11.3438 12.5625 11.8125 12.0938 12 11.9062C12.1875 11.7188 12.375 11.7188 12.4687 11.7188H12.8438C12.9375 11.7188 13.125 11.7188 13.2188 12C13.4063 12.375 13.7813 13.3125 13.7813 13.4063C13.7813 13.4375 13.7917 13.4688 13.8021 13.5C13.8229 13.5625 13.8438 13.625 13.7813 13.6875C13.7344 13.7344 13.7109 13.7812 13.6875 13.8281C13.6641 13.875 13.6406 13.9219 13.5938 13.9688L13.3125 14.25C13.2188 14.3438 13.125 14.4375 13.2188 14.625C13.3125 14.8125 13.6875 15.4688 14.25 15.9375C14.8829 16.4913 15.3823 16.7113 15.6355 16.8228C15.6823 16.8434 15.7207 16.8604 15.75 16.875C15.9375 16.875 16.0313 16.875 16.125 16.7813C16.1719 16.6875 16.2891 16.5469 16.4062 16.4062C16.5234 16.2656 16.6406 16.125 16.6875 16.0312C16.7812 15.8438 16.875 15.8438 17.0625 15.9375Z" fill="white"/>
<path fill-rule="evenodd" clip-rule="evenodd" d="M0 15C0 6.71573 6.71573 0 15 0C23.2843 0 30 6.71573 30 15C30 23.2843 23.2843 30 15 30C6.71573 30 0 23.2843 0 15ZM15 7.5C16.9687 7.5 18.8438 8.25 20.25 9.65625C21.6563 11.0625 22.5 12.9375 22.5 14.9063C22.5 19.0313 19.125 22.4063 15 22.4063C13.7812 22.4063 12.5625 22.0312 11.4375 21.4688L7.5 22.5L8.53126 18.75C7.87501 17.625 7.5 16.3125 7.5 15C7.5 10.875 10.875 7.5 15 7.5Z" fill="white"/>
</svg>
