<svg width="32" height="33" viewBox="0 0 32 33" fill="none" xmlns="http://www.w3.org/2000/svg">
<path d="M32 16.9023C32 25.7389 24.8366 32.9023 16 32.9023C7.16344 32.9023 0 25.7389 0 16.9023C0 8.06579 7.16344 0.902344 16 0.902344C24.8366 0.902344 32 8.06579 32 16.9023Z" fill="url(#paint0_linear_326_19015)"/>
<path fill-rule="evenodd" clip-rule="evenodd" d="M24.4297 16.8114L12.7269 23.5173C12.3559 23.7299 11.8828 23.6015 11.6703 23.2305C11.4577 22.8595 11.5861 22.3865 11.9571 22.1739L21.2829 16.83L11.9651 11.6361C11.5916 11.4279 11.4576 10.9564 11.6658 10.5829C11.8739 10.2095 12.3455 10.0755 12.7189 10.2836L24.4297 16.8114Z" fill="url(#paint1_linear_326_19015)"/>
<defs>
<linearGradient id="paint0_linear_326_19015" x1="16" y1="0.902344" x2="16" y2="32.9023" gradientUnits="userSpaceOnUse">
<stop stop-color="#F4F4F4"/>
<stop offset="1" stop-color="#DBDBDB"/>
</linearGradient>
<linearGradient id="paint1_linear_326_19015" x1="17.9496" y1="24.5088" x2="17.9496" y2="9.15639" gradientUnits="userSpaceOnUse">
<stop/>
<stop offset="1" stop-color="#A6A6A6"/>
</linearGradient>
</defs>
</svg>
