<svg width="31" height="31" viewBox="0 0 31 31" fill="none" xmlns="http://www.w3.org/2000/svg">
<path fill-rule="evenodd" clip-rule="evenodd" d="M15.5 31C6.93959 31 0 24.0604 0 15.5C0 6.93959 6.93959 0 15.5 0C24.0604 0 31 6.93959 31 15.5C31 24.0604 24.0604 31 15.5 31ZM16.1702 11.6321C14.782 12.2096 12.0075 13.4046 7.84679 15.2174C7.17115 15.4861 6.81722 15.7489 6.78501 16.0059C6.73055 16.4403 7.27449 16.6113 8.01518 16.8442C8.11594 16.8759 8.22033 16.9088 8.32736 16.9435C9.05609 17.1804 10.0364 17.4576 10.546 17.4686C11.0082 17.4785 11.5242 17.288 12.0938 16.8968C15.9813 14.2727 17.988 12.9463 18.114 12.9177C18.2029 12.8975 18.3261 12.8721 18.4095 12.9463C18.493 13.0205 18.4848 13.161 18.4759 13.1987C18.4221 13.4284 16.2869 15.4134 15.182 16.4406C14.8375 16.7609 14.5932 16.988 14.5432 17.0399C14.4313 17.1561 14.3173 17.2661 14.2077 17.3717C13.5307 18.0244 13.023 18.5138 14.2358 19.313C14.8186 19.6971 15.285 20.0147 15.7503 20.3315C16.2584 20.6776 16.7652 21.0227 17.421 21.4526C17.588 21.5621 17.7476 21.6758 17.903 21.7866C18.4943 22.2082 19.0256 22.5869 19.6819 22.5265C20.0633 22.4914 20.4573 22.1328 20.6573 21.0633C21.1302 18.5356 22.0596 13.0588 22.2744 10.802C22.2932 10.6043 22.2695 10.3512 22.2505 10.2401C22.2315 10.1291 22.1918 9.97079 22.0474 9.85363C21.8764 9.71487 21.6124 9.68561 21.4943 9.68759C20.9575 9.69715 20.1339 9.98353 16.1702 11.6321Z" fill="white"/>
</svg>
