<svg width="150" height="70" viewBox="0 0 150 70" fill="none" xmlns="http://www.w3.org/2000/svg">
<path d="M44.3502 55.935H43.5552L43.3752 54H37.5552L37.3752 55.935H36.5802V52.965H37.4502C37.5102 52.855 37.6052 52.595 37.7352 52.185C37.8752 51.775 38.0102 51.19 38.1402 50.43C38.2802 49.66 38.4002 48.705 38.5002 47.565C38.6002 46.415 38.6452 45.06 38.6352 43.5H43.2552V52.965H44.3502V55.935ZM42.1302 52.965V44.535H39.7152C39.6652 46.745 39.5352 48.535 39.3252 49.905C39.1152 51.275 38.8852 52.295 38.6352 52.965H42.1302ZM45.0464 48.75C45.0464 46.97 45.3314 45.62 45.9014 44.7C46.4714 43.78 47.3414 43.32 48.5114 43.32C49.1414 43.32 49.6764 43.45 50.1164 43.71C50.5564 43.96 50.9114 44.32 51.1814 44.79C51.4614 45.26 51.6664 45.83 51.7964 46.5C51.9264 47.17 51.9914 47.92 51.9914 48.75C51.9914 50.53 51.7014 51.88 51.1214 52.8C50.5514 53.72 49.6814 54.18 48.5114 54.18C47.8914 54.18 47.3614 54.055 46.9214 53.805C46.4814 53.545 46.1214 53.18 45.8414 52.71C45.5614 52.24 45.3564 51.67 45.2264 51C45.1064 50.33 45.0464 49.58 45.0464 48.75ZM46.2314 48.75C46.2314 49.34 46.2714 49.9 46.3514 50.43C46.4414 50.96 46.5764 51.425 46.7564 51.825C46.9364 52.225 47.1714 52.545 47.4614 52.785C47.7514 53.025 48.1014 53.145 48.5114 53.145C49.2614 53.145 49.8314 52.785 50.2214 52.065C50.6114 51.345 50.8064 50.24 50.8064 48.75C50.8064 48.17 50.7614 47.615 50.6714 47.085C50.5914 46.555 50.4614 46.09 50.2814 45.69C50.1014 45.28 49.8664 44.955 49.5764 44.715C49.2864 44.475 48.9314 44.355 48.5114 44.355C47.7714 44.355 47.2064 44.715 46.8164 45.435C46.4264 46.155 46.2314 47.26 46.2314 48.75ZM59.0838 53.595C58.8338 53.805 58.5188 53.955 58.1388 54.045C57.7588 54.135 57.3588 54.18 56.9388 54.18C56.4088 54.18 55.9188 54.08 55.4688 53.88C55.0188 53.68 54.6288 53.365 54.2988 52.935C53.9788 52.495 53.7288 51.93 53.5488 51.24C53.3688 50.55 53.2788 49.72 53.2788 48.75C53.2788 47.75 53.3788 46.905 53.5788 46.215C53.7888 45.525 54.0638 44.965 54.4038 44.535C54.7438 44.105 55.1338 43.795 55.5738 43.605C56.0238 43.415 56.4838 43.32 56.9538 43.32C57.4338 43.32 57.8288 43.355 58.1388 43.425C58.4588 43.495 58.7338 43.58 58.9638 43.68L58.6938 44.7C58.4938 44.59 58.2588 44.505 57.9888 44.445C57.7188 44.385 57.4088 44.355 57.0588 44.355C56.7088 44.355 56.3788 44.435 56.0688 44.595C55.7588 44.745 55.4838 44.995 55.2438 45.345C55.0038 45.685 54.8138 46.135 54.6738 46.695C54.5338 47.255 54.4638 47.94 54.4638 48.75C54.4638 50.21 54.7138 51.31 55.2138 52.05C55.7138 52.78 56.3788 53.145 57.2088 53.145C57.5488 53.145 57.8538 53.1 58.1238 53.01C58.3938 52.91 58.6238 52.795 58.8138 52.665L59.0838 53.595ZM65.618 44.535H63.038V54H61.913V44.535H59.333V43.5H65.618V44.535ZM70.0067 51.06H67.0367L66.1967 54H65.0867L68.2517 43.335H68.8667L72.0317 54H70.8617L70.0067 51.06ZM67.3367 50.055H69.7367L68.8217 46.815L68.5367 45.24H68.5067L68.2217 46.845L67.3367 50.055ZM78.2666 45.885C78.2666 46.145 78.2366 46.405 78.1766 46.665C78.1166 46.925 78.0216 47.17 77.8916 47.4C77.7616 47.63 77.5966 47.835 77.3966 48.015C77.2066 48.195 76.9716 48.33 76.6916 48.42V48.48C76.9316 48.53 77.1616 48.615 77.3816 48.735C77.6016 48.845 77.7966 49.005 77.9666 49.215C78.1366 49.415 78.2716 49.665 78.3716 49.965C78.4716 50.255 78.5216 50.605 78.5216 51.015C78.5216 51.555 78.4366 52.025 78.2666 52.425C78.0966 52.815 77.8616 53.135 77.5616 53.385C77.2716 53.635 76.9316 53.82 76.5416 53.94C76.1616 54.06 75.7566 54.12 75.3266 54.12C75.1866 54.12 75.0216 54.12 74.8316 54.12C74.6516 54.12 74.4566 54.11 74.2466 54.09C74.0366 54.08 73.8266 54.06 73.6166 54.03C73.4166 54.01 73.2316 53.975 73.0616 53.925V43.59C73.3616 43.53 73.7116 43.48 74.1116 43.44C74.5216 43.4 74.9616 43.38 75.4316 43.38C75.7716 43.38 76.1116 43.415 76.4516 43.485C76.7916 43.545 77.0966 43.665 77.3666 43.845C77.6366 44.025 77.8516 44.28 78.0116 44.61C78.1816 44.93 78.2666 45.355 78.2666 45.885ZM75.4166 53.085C75.6866 53.085 75.9366 53.045 76.1666 52.965C76.3966 52.875 76.5966 52.745 76.7666 52.575C76.9466 52.405 77.0866 52.2 77.1866 51.96C77.2866 51.71 77.3366 51.42 77.3366 51.09C77.3366 50.68 77.2716 50.35 77.1416 50.1C77.0216 49.84 76.8616 49.64 76.6616 49.5C76.4616 49.36 76.2316 49.265 75.9716 49.215C75.7216 49.165 75.4616 49.14 75.1916 49.14H74.1866V52.98C74.2466 53 74.3216 53.015 74.4116 53.025C74.5116 53.035 74.6166 53.045 74.7266 53.055C74.8466 53.065 74.9666 53.075 75.0866 53.085C75.2066 53.085 75.3166 53.085 75.4166 53.085ZM74.8016 48.165C74.9416 48.165 75.1016 48.16 75.2816 48.15C75.4616 48.14 75.6116 48.125 75.7316 48.105C76.1016 47.955 76.4166 47.715 76.6766 47.385C76.9466 47.045 77.0816 46.63 77.0816 46.14C77.0816 45.81 77.0366 45.535 76.9466 45.315C76.8566 45.085 76.7316 44.905 76.5716 44.775C76.4216 44.645 76.2416 44.555 76.0316 44.505C75.8216 44.445 75.6016 44.415 75.3716 44.415C75.1116 44.415 74.8766 44.425 74.6666 44.445C74.4566 44.455 74.2966 44.47 74.1866 44.49V48.165H74.8016ZM81.7871 49.14H81.2471V54H80.1221V43.5H81.2471V48.39L81.7721 48.18L84.5021 43.5H85.7921L83.0471 48.03L82.5221 48.51L83.1371 49.11L86.1821 54H84.7571L81.7871 49.14ZM91.5546 51.06H88.5846L87.7446 54H86.6346L89.7996 43.335H90.4146L93.5796 54H92.4096L91.5546 51.06ZM88.8846 50.055H91.2846L90.3696 46.815L90.0846 45.24H90.0546L89.7696 46.845L88.8846 50.055ZM97.2901 43.605C97.6101 43.515 97.9501 43.455 98.3101 43.425C98.6701 43.395 99.0251 43.38 99.3751 43.38C99.7751 43.38 100.17 43.425 100.56 43.515C100.95 43.605 101.3 43.77 101.61 44.01C101.93 44.25 102.185 44.58 102.375 45C102.575 45.42 102.675 45.955 102.675 46.605C102.675 47.235 102.58 47.77 102.39 48.21C102.21 48.65 101.965 49.01 101.655 49.29C101.355 49.56 101.005 49.76 100.605 49.89C100.215 50.01 99.8101 50.07 99.3901 50.07C99.3501 50.07 99.2851 50.07 99.1951 50.07C99.1051 50.07 99.0101 50.07 98.9101 50.07C98.8101 50.06 98.7101 50.05 98.6101 50.04C98.5201 50.03 98.4551 50.02 98.4151 50.01V54H97.2901V43.605ZM99.4351 44.415C99.2351 44.415 99.0401 44.425 98.8501 44.445C98.6701 44.455 98.5251 44.475 98.4151 44.505V48.975C98.4551 48.995 98.5151 49.01 98.5951 49.02C98.6851 49.02 98.7751 49.025 98.8651 49.035C98.9551 49.035 99.0401 49.035 99.1201 49.035C99.2101 49.035 99.2751 49.035 99.3151 49.035C99.5951 49.035 99.8651 49 100.125 48.93C100.385 48.86 100.615 48.735 100.815 48.555C101.015 48.365 101.175 48.115 101.295 47.805C101.425 47.485 101.49 47.085 101.49 46.605C101.49 46.185 101.43 45.835 101.31 45.555C101.2 45.275 101.05 45.05 100.86 44.88C100.68 44.71 100.465 44.59 100.215 44.52C99.9651 44.45 99.7051 44.415 99.4351 44.415ZM103.552 48.75C103.552 46.97 103.837 45.62 104.407 44.7C104.977 43.78 105.847 43.32 107.017 43.32C107.647 43.32 108.182 43.45 108.622 43.71C109.062 43.96 109.417 44.32 109.687 44.79C109.967 45.26 110.172 45.83 110.302 46.5C110.432 47.17 110.497 47.92 110.497 48.75C110.497 50.53 110.207 51.88 109.627 52.8C109.057 53.72 108.187 54.18 107.017 54.18C106.397 54.18 105.867 54.055 105.427 53.805C104.987 53.545 104.627 53.18 104.347 52.71C104.067 52.24 103.862 51.67 103.732 51C103.612 50.33 103.552 49.58 103.552 48.75ZM104.737 48.75C104.737 49.34 104.777 49.9 104.857 50.43C104.947 50.96 105.082 51.425 105.262 51.825C105.442 52.225 105.677 52.545 105.967 52.785C106.257 53.025 106.607 53.145 107.017 53.145C107.767 53.145 108.337 52.785 108.727 52.065C109.117 51.345 109.312 50.24 109.312 48.75C109.312 48.17 109.267 47.615 109.177 47.085C109.097 46.555 108.967 46.09 108.787 45.69C108.607 45.28 108.372 44.955 108.082 44.715C107.792 44.475 107.437 44.355 107.017 44.355C106.277 44.355 105.712 44.715 105.322 45.435C104.932 46.155 104.737 47.26 104.737 48.75ZM116.585 44.535H114.215C114.135 46.545 114.03 48.225 113.9 49.575C113.77 50.925 113.57 51.965 113.3 52.695C113.13 53.175 112.92 53.525 112.67 53.745C112.42 53.965 112.135 54.075 111.815 54.075C111.525 54.075 111.28 54.025 111.08 53.925L111.245 52.89C111.445 52.95 111.63 52.94 111.8 52.86C111.97 52.78 112.13 52.55 112.28 52.17C112.39 51.9 112.49 51.54 112.58 51.09C112.68 50.63 112.765 50.05 112.835 49.35C112.915 48.65 112.98 47.82 113.03 46.86C113.08 45.9 113.115 44.78 113.135 43.5H117.71V54H116.585V44.535ZM124.114 44.535H121.744C121.664 46.545 121.559 48.225 121.429 49.575C121.299 50.925 121.099 51.965 120.829 52.695C120.659 53.175 120.449 53.525 120.199 53.745C119.949 53.965 119.664 54.075 119.344 54.075C119.054 54.075 118.809 54.025 118.609 53.925L118.774 52.89C118.974 52.95 119.159 52.94 119.329 52.86C119.499 52.78 119.659 52.55 119.809 52.17C119.919 51.9 120.019 51.54 120.109 51.09C120.209 50.63 120.294 50.05 120.364 49.35C120.444 48.65 120.509 47.82 120.559 46.86C120.609 45.9 120.644 44.78 120.664 43.5H125.239V54H124.114V44.535ZM126.843 48.75C126.843 46.97 127.128 45.62 127.698 44.7C128.268 43.78 129.138 43.32 130.308 43.32C130.938 43.32 131.473 43.45 131.913 43.71C132.353 43.96 132.708 44.32 132.978 44.79C133.258 45.26 133.463 45.83 133.593 46.5C133.723 47.17 133.788 47.92 133.788 48.75C133.788 50.53 133.498 51.88 132.918 52.8C132.348 53.72 131.478 54.18 130.308 54.18C129.688 54.18 129.158 54.055 128.718 53.805C128.278 53.545 127.918 53.18 127.638 52.71C127.358 52.24 127.153 51.67 127.023 51C126.903 50.33 126.843 49.58 126.843 48.75ZM128.028 48.75C128.028 49.34 128.068 49.9 128.148 50.43C128.238 50.96 128.373 51.425 128.553 51.825C128.733 52.225 128.968 52.545 129.258 52.785C129.548 53.025 129.898 53.145 130.308 53.145C131.058 53.145 131.628 52.785 132.018 52.065C132.408 51.345 132.603 50.24 132.603 48.75C132.603 48.17 132.558 47.615 132.468 47.085C132.388 46.555 132.258 46.09 132.078 45.69C131.898 45.28 131.663 44.955 131.373 44.715C131.083 44.475 130.728 44.355 130.308 44.355C129.568 44.355 129.003 44.715 128.613 45.435C128.223 46.155 128.028 47.26 128.028 48.75ZM140.596 45.885C140.596 46.145 140.566 46.405 140.506 46.665C140.446 46.925 140.351 47.17 140.221 47.4C140.091 47.63 139.926 47.835 139.726 48.015C139.536 48.195 139.301 48.33 139.021 48.42V48.48C139.261 48.53 139.491 48.615 139.711 48.735C139.931 48.845 140.126 49.005 140.296 49.215C140.466 49.415 140.601 49.665 140.701 49.965C140.801 50.255 140.851 50.605 140.851 51.015C140.851 51.555 140.766 52.025 140.596 52.425C140.426 52.815 140.191 53.135 139.891 53.385C139.601 53.635 139.261 53.82 138.871 53.94C138.491 54.06 138.086 54.12 137.656 54.12C137.516 54.12 137.351 54.12 137.161 54.12C136.981 54.12 136.786 54.11 136.576 54.09C136.366 54.08 136.156 54.06 135.946 54.03C135.746 54.01 135.561 53.975 135.391 53.925V43.59C135.691 43.53 136.041 43.48 136.441 43.44C136.851 43.4 137.291 43.38 137.761 43.38C138.101 43.38 138.441 43.415 138.781 43.485C139.121 43.545 139.426 43.665 139.696 43.845C139.966 44.025 140.181 44.28 140.341 44.61C140.511 44.93 140.596 45.355 140.596 45.885ZM137.746 53.085C138.016 53.085 138.266 53.045 138.496 52.965C138.726 52.875 138.926 52.745 139.096 52.575C139.276 52.405 139.416 52.2 139.516 51.96C139.616 51.71 139.666 51.42 139.666 51.09C139.666 50.68 139.601 50.35 139.471 50.1C139.351 49.84 139.191 49.64 138.991 49.5C138.791 49.36 138.561 49.265 138.301 49.215C138.051 49.165 137.791 49.14 137.521 49.14H136.516V52.98C136.576 53 136.651 53.015 136.741 53.025C136.841 53.035 136.946 53.045 137.056 53.055C137.176 53.065 137.296 53.075 137.416 53.085C137.536 53.085 137.646 53.085 137.746 53.085ZM137.131 48.165C137.271 48.165 137.431 48.16 137.611 48.15C137.791 48.14 137.941 48.125 138.061 48.105C138.431 47.955 138.746 47.715 139.006 47.385C139.276 47.045 139.411 46.63 139.411 46.14C139.411 45.81 139.366 45.535 139.276 45.315C139.186 45.085 139.061 44.905 138.901 44.775C138.751 44.645 138.571 44.555 138.361 44.505C138.151 44.445 137.931 44.415 137.701 44.415C137.441 44.415 137.206 44.425 136.996 44.445C136.786 44.455 136.626 44.47 136.516 44.49V48.165H137.131ZM42.6102 62.13L42.7002 60.75H42.6552L42.1302 62.16L38.2452 69H37.4952V58.5H38.6202V65.475L38.5152 66.825H38.5752L39.1002 65.415L43.0002 58.5H43.7352V69H42.6102V62.13ZM54.323 68.595C54.073 68.805 53.758 68.955 53.378 69.045C52.998 69.135 52.598 69.18 52.178 69.18C51.648 69.18 51.158 69.08 50.708 68.88C50.258 68.68 49.868 68.365 49.538 67.935C49.218 67.495 48.968 66.93 48.788 66.24C48.608 65.55 48.518 64.72 48.518 63.75C48.518 62.75 48.618 61.905 48.818 61.215C49.028 60.525 49.303 59.965 49.643 59.535C49.983 59.105 50.373 58.795 50.813 58.605C51.263 58.415 51.723 58.32 52.193 58.32C52.673 58.32 53.068 58.355 53.378 58.425C53.698 58.495 53.973 58.58 54.203 58.68L53.933 59.7C53.733 59.59 53.498 59.505 53.228 59.445C52.958 59.385 52.648 59.355 52.298 59.355C51.948 59.355 51.618 59.435 51.308 59.595C50.998 59.745 50.723 59.995 50.483 60.345C50.243 60.685 50.053 61.135 49.913 61.695C49.773 62.255 49.703 62.94 49.703 63.75C49.703 65.21 49.953 66.31 50.453 67.05C50.953 67.78 51.618 68.145 52.448 68.145C52.788 68.145 53.093 68.1 53.363 68.01C53.633 67.91 53.863 67.795 54.053 67.665L54.323 68.595ZM57.797 63.885L58.082 65.22H58.157L58.397 63.84L59.957 58.5H61.112L58.967 65.325C58.747 66.025 58.552 66.615 58.382 67.095C58.222 67.575 58.057 67.96 57.887 68.25C57.727 68.54 57.547 68.75 57.347 68.88C57.147 69.01 56.902 69.075 56.612 69.075C56.352 69.075 56.137 69.05 55.967 69C55.797 68.95 55.637 68.87 55.487 68.76L55.817 67.8C55.977 67.91 56.122 67.98 56.252 68.01C56.382 68.03 56.502 68.04 56.612 68.04C56.832 68.04 57.017 67.89 57.167 67.59C57.317 67.28 57.447 66.845 57.557 66.285L54.422 58.5H55.742L57.797 63.885ZM62.0606 69V58.5H63.1856V67.965H65.7806V58.5H66.9056V67.965H69.5006V58.5H70.6256V69H62.0606ZM77.6639 62.13L77.7539 60.75H77.7089L77.1839 62.16L73.2989 69H72.5489V58.5H73.6739V65.475L73.5689 66.825H73.6289L74.1539 65.415L78.0539 58.5H78.7889V69H77.6639V62.13Z" fill="#F6F6F6"/>
<path fill-rule="evenodd" clip-rule="evenodd" d="M33.7068 3.56566L8.11387 19.3692L9.68883 21.9198L33.7068 7.08875L33.7068 3.56566Z" fill="white"/>
<path d="M30.1758 23.6351C30.1758 21.1518 28.1627 19.1387 25.6793 19.1387H19.5841C17.1008 19.1387 15.0877 21.1518 15.0877 23.6351V29.7303C15.0877 32.2136 17.1008 34.2268 19.5841 34.2268H25.6793C28.1627 34.2268 30.1758 32.2136 30.1758 29.7303V23.6351Z" fill="#FF9EC7"/>
<path fill-rule="evenodd" clip-rule="evenodd" d="M19.5841 20.6375H25.6793C27.3349 20.6375 28.677 21.9796 28.677 23.6351V29.7303C28.677 31.3859 27.3349 32.7279 25.6793 32.7279H19.5841C17.9286 32.7279 16.5865 31.3859 16.5865 29.7303V23.6351C16.5865 21.9796 17.9286 20.6375 19.5841 20.6375ZM25.6793 19.1387C28.1627 19.1387 30.1758 21.1518 30.1758 23.6351V29.7303C30.1758 32.2136 28.1627 34.2268 25.6793 34.2268H19.5841C17.1008 34.2268 15.0877 32.2136 15.0877 29.7303V23.6351C15.0877 21.1518 17.1008 19.1387 19.5841 19.1387H25.6793Z" fill="#D23577"/>
<path d="M0 23.6351C0 21.1518 2.01313 19.1387 4.49645 19.1387H10.5916C13.075 19.1387 15.0881 21.1518 15.0881 23.6351V29.7303C15.0881 32.2136 13.075 34.2268 10.5916 34.2268H4.49645C2.01313 34.2268 0 32.2136 0 29.7303V23.6351Z" fill="#5D8ACE"/>
<path fill-rule="evenodd" clip-rule="evenodd" d="M10.5916 20.6375H4.49645C2.8409 20.6375 1.49882 21.9796 1.49882 23.6351V29.7303C1.49882 31.3859 2.8409 32.7279 4.49645 32.7279H10.5916C12.2472 32.7279 13.5893 31.3859 13.5893 29.7303V23.6351C13.5893 21.9796 12.2472 20.6375 10.5916 20.6375ZM4.49645 19.1387C2.01313 19.1387 0 21.1518 0 23.6351V29.7303C0 32.2136 2.01313 34.2268 4.49645 34.2268H10.5916C13.075 34.2268 15.0881 32.2136 15.0881 29.7303V23.6351C15.0881 21.1518 13.075 19.1387 10.5916 19.1387H4.49645Z" fill="#113D81"/>
<path d="M13.0889 25.6333C13.0889 26.2403 12.5968 26.7324 11.9898 26.7324C11.3827 26.7324 10.8906 26.2403 10.8906 25.6333C10.8906 25.0263 11.3827 24.5342 11.9898 24.5342C12.5968 24.5342 13.0889 25.0263 13.0889 25.6333Z" fill="#0A2754"/>
<path fill-rule="evenodd" clip-rule="evenodd" d="M3.99467 26.4139C4.74965 24.076 5.06642 21.6894 4.89871 20.5441L7.72281 20.1377C7.98315 21.9156 7.51515 24.7909 6.71249 27.2764C6.3018 28.5482 5.77603 29.8062 5.14844 30.8493C4.54852 31.8464 3.73389 32.8539 2.65554 33.3273L1.5 30.7406C1.75337 30.6294 2.18723 30.2483 2.69759 29.4001C3.18027 28.5979 3.62654 27.5538 3.99467 26.4139Z" fill="#113D81"/>
<path d="M17.0869 25.6333C17.0869 26.2403 17.579 26.7324 18.186 26.7324C18.7931 26.7324 19.2852 26.2403 19.2852 25.6333C19.2852 25.0263 18.7931 24.5342 18.186 24.5342C17.579 24.5342 17.0869 25.0263 17.0869 25.6333Z" fill="#81224A"/>
<path fill-rule="evenodd" clip-rule="evenodd" d="M26.4311 26.4139C25.6761 24.076 25.3594 21.6894 25.5271 20.5441L22.703 20.1377C22.4426 21.9156 22.9106 24.7909 23.7133 27.2764C24.124 28.5482 24.6498 29.8062 25.2773 30.8493C25.8773 31.8464 26.6919 32.8539 27.7702 33.3273L28.9258 30.7406C28.6724 30.6294 28.2385 30.2483 27.7282 29.4001C27.2455 28.5979 26.7992 27.5538 26.4311 26.4139Z" fill="#D23577"/>
<path fill-rule="evenodd" clip-rule="evenodd" d="M13.8711 31.6488C11.1747 31.3899 9.87484 29.6512 9.08799 28.0744L10.4291 27.4051C11.1145 28.7786 12.0663 29.9698 14.0144 30.1569L13.8711 31.6488Z" fill="#113D81"/>
<path fill-rule="evenodd" clip-rule="evenodd" d="M15.8398 31.6488C18.5363 31.3899 19.8361 29.6512 20.6229 28.0744L19.2818 27.4051C18.5965 28.7786 17.6446 29.9698 15.6966 30.1569L15.8398 31.6488Z" fill="#D23577"/>
<path fill-rule="evenodd" clip-rule="evenodd" d="M33.7058 22.7789L4.92518 40.4888L6.50014 43.0394L33.7058 26.2986L33.7058 22.7789Z" fill="white"/>
<path d="M46.32 22.4762H43V34.1562H40.48V22.4762H37.16V20.1562H46.32V22.4762ZM55.3727 23.3962C55.3727 23.7429 55.3327 24.0896 55.2527 24.4362C55.186 24.7696 55.0727 25.0896 54.9127 25.3962C54.7527 25.6896 54.5393 25.9496 54.2727 26.1762C54.0193 26.4029 53.7127 26.5762 53.3527 26.6962V26.8162C53.6727 26.8962 53.9727 27.0162 54.2527 27.1762C54.546 27.3362 54.7993 27.5562 55.0127 27.8362C55.226 28.1029 55.3927 28.4362 55.5127 28.8362C55.646 29.2229 55.7127 29.6829 55.7127 30.2162C55.7127 30.9362 55.586 31.5629 55.3327 32.0962C55.0927 32.6162 54.7593 33.0429 54.3327 33.3762C53.9193 33.7096 53.4327 33.9562 52.8727 34.1162C52.3127 34.2763 51.7193 34.3563 51.0927 34.3563C50.906 34.3563 50.666 34.3563 50.3727 34.3563C50.0793 34.3563 49.7593 34.3429 49.4127 34.3163C49.0793 34.3029 48.7327 34.2763 48.3727 34.2363C48.0127 34.1963 47.6793 34.1362 47.3727 34.0562V20.2562C47.8127 20.1762 48.3527 20.1096 48.9927 20.0562C49.646 19.9896 50.2927 19.9562 50.9327 19.9562C51.5193 19.9562 52.0793 20.0029 52.6127 20.0962C53.1593 20.1896 53.6327 20.3629 54.0327 20.6162C54.446 20.8696 54.7727 21.2229 55.0127 21.6762C55.2527 22.1162 55.3727 22.6896 55.3727 23.3962ZM51.1527 32.1762C51.7127 32.1762 52.1727 31.9962 52.5327 31.6362C52.8927 31.2762 53.0727 30.7496 53.0727 30.0562C53.0727 29.6162 53.0127 29.2696 52.8927 29.0163C52.7727 28.7496 52.6127 28.5496 52.4127 28.4162C52.2127 28.2696 51.9793 28.1762 51.7127 28.1362C51.4593 28.0962 51.1927 28.0762 50.9127 28.0762H49.8927V32.0562C49.9993 32.0962 50.1793 32.1296 50.4327 32.1562C50.6993 32.1696 50.9393 32.1762 51.1527 32.1762ZM50.4727 26.0962C50.6193 26.0962 50.786 26.0896 50.9727 26.0762C51.1727 26.0496 51.3327 26.0229 51.4527 25.9962C51.8393 25.8496 52.166 25.6096 52.4327 25.2762C52.7127 24.9429 52.8527 24.5096 52.8527 23.9762C52.8527 23.6296 52.806 23.3362 52.7127 23.0962C52.6193 22.8562 52.4927 22.6696 52.3327 22.5362C52.1727 22.3896 51.9793 22.2896 51.7527 22.2362C51.5393 22.1696 51.306 22.1362 51.0527 22.1362C50.506 22.1362 50.1193 22.1629 49.8927 22.2162V26.0962H50.4727ZM63.7973 26.6962L63.9973 24.7162H63.8973L63.1373 26.8362L59.1573 34.1562H57.1773V20.1562H59.6973V27.4762L59.4773 29.5162H59.5773L60.3773 27.3362L64.3573 20.1562H66.3173V34.1562H63.7973V26.6962ZM74.4548 28.2362H70.6348V34.1562H68.1148V20.1562H70.6348V25.9162H74.4548V20.1562H76.9748V34.1562H74.4548V28.2362ZM78.7789 20.2962C79.2589 20.1896 79.7856 20.1096 80.3589 20.0562C80.9322 19.9896 81.5056 19.9562 82.0789 19.9562C82.6922 19.9562 83.2922 20.0162 83.8789 20.1362C84.4789 20.2429 85.0122 20.4629 85.4789 20.7962C85.9456 21.1296 86.3256 21.6029 86.6189 22.2162C86.9122 22.8162 87.0589 23.6029 87.0589 24.5762C87.0589 25.4562 86.9322 26.2029 86.6789 26.8162C86.4389 27.4296 86.1122 27.9296 85.6989 28.3162C85.2856 28.7029 84.8056 28.9829 84.2589 29.1562C83.7256 29.3296 83.1722 29.4162 82.5989 29.4162C82.5456 29.4162 82.4589 29.4162 82.3389 29.4162C82.2189 29.4162 82.0922 29.4162 81.9589 29.4162C81.8256 29.4029 81.6922 29.3896 81.5589 29.3762C81.4389 29.3629 81.3522 29.3496 81.2989 29.3362V34.1562H78.7789V20.2962ZM81.2989 27.0762C81.3789 27.1029 81.5256 27.1296 81.7389 27.1562C81.9656 27.1696 82.1189 27.1762 82.1989 27.1762C82.4922 27.1762 82.7722 27.1362 83.0389 27.0562C83.3056 26.9762 83.5389 26.8429 83.7389 26.6562C83.9522 26.4562 84.1189 26.1896 84.2389 25.8562C84.3589 25.5096 84.4189 25.0762 84.4189 24.5562C84.4189 24.1162 84.3589 23.7429 84.2389 23.4362C84.1322 23.1296 83.9789 22.8896 83.7789 22.7162C83.5922 22.5296 83.3722 22.3962 83.1189 22.3162C82.8656 22.2362 82.5989 22.1962 82.3189 22.1962C81.9056 22.1962 81.5656 22.2296 81.2989 22.2962V27.0762ZM87.8339 27.1562C87.8339 24.7829 88.2406 22.9762 89.0539 21.7362C89.8672 20.4962 91.1072 19.8762 92.7739 19.8762C93.6406 19.8762 94.3872 20.0496 95.0139 20.3962C95.6406 20.7296 96.1539 21.2162 96.5539 21.8562C96.9539 22.4829 97.2472 23.2496 97.4339 24.1562C97.6339 25.0496 97.7339 26.0496 97.7339 27.1562C97.7339 29.5296 97.3139 31.3362 96.4739 32.5762C95.6472 33.8162 94.4139 34.4363 92.7739 34.4363C91.8939 34.4363 91.1406 34.2696 90.5139 33.9362C89.9006 33.5896 89.3939 33.1029 88.9939 32.4762C88.5939 31.8362 88.3006 31.0696 88.1139 30.1762C87.9272 29.2696 87.8339 28.2629 87.8339 27.1562ZM90.4739 27.1562C90.4739 27.8629 90.5139 28.5229 90.5939 29.1362C90.6739 29.7362 90.8072 30.2562 90.9939 30.6962C91.1806 31.1362 91.4139 31.4829 91.6939 31.7362C91.9872 31.9896 92.3472 32.1162 92.7739 32.1162C93.5472 32.1162 94.1272 31.7229 94.5139 30.9362C94.9006 30.1496 95.0939 28.8896 95.0939 27.1562C95.0939 26.4762 95.0539 25.8362 94.9739 25.2362C94.8939 24.6229 94.7606 24.0962 94.5739 23.6562C94.4006 23.2029 94.1672 22.8496 93.8739 22.5962C93.5806 22.3296 93.2139 22.1962 92.7739 22.1962C91.2406 22.1962 90.4739 23.8496 90.4739 27.1562ZM104.916 22.4762H102.796C102.702 25.0096 102.576 27.1296 102.416 28.8362C102.256 30.5296 101.949 31.8229 101.496 32.7162C101.336 33.0362 101.149 33.3029 100.936 33.5162C100.736 33.7162 100.529 33.8762 100.316 33.9962C100.116 34.1029 99.909 34.1763 99.6956 34.2163C99.4823 34.2696 99.289 34.2963 99.1156 34.2963C98.8356 34.2963 98.589 34.2696 98.3756 34.2163C98.1623 34.1763 97.9623 34.1096 97.7756 34.0162L98.0556 31.7362C98.2956 31.8296 98.5356 31.8362 98.7756 31.7562C99.0156 31.6629 99.2156 31.4429 99.3756 31.0962C99.5356 30.8029 99.6756 30.3762 99.7956 29.8162C99.9156 29.2429 100.016 28.5096 100.096 27.6162C100.189 26.7229 100.256 25.6629 100.296 24.4362C100.349 23.2096 100.389 21.7829 100.416 20.1562H107.436V34.1562H104.916V22.4762ZM115.248 22.4762H113.128C113.034 25.0096 112.908 27.1296 112.748 28.8362C112.588 30.5296 112.281 31.8229 111.828 32.7162C111.668 33.0362 111.481 33.3029 111.268 33.5162C111.068 33.7162 110.861 33.8762 110.648 33.9962C110.448 34.1029 110.241 34.1763 110.028 34.2163C109.814 34.2696 109.621 34.2963 109.448 34.2963C109.168 34.2963 108.921 34.2696 108.708 34.2163C108.494 34.1763 108.294 34.1096 108.108 34.0162L108.388 31.7362C108.628 31.8296 108.868 31.8362 109.108 31.7562C109.348 31.6629 109.548 31.4429 109.708 31.0962C109.868 30.8029 110.008 30.3762 110.128 29.8162C110.248 29.2429 110.348 28.5096 110.428 27.6162C110.521 26.7229 110.588 25.6629 110.628 24.4362C110.681 23.2096 110.721 21.7829 110.748 20.1562H117.768V34.1562H115.248V22.4762Z" fill="white"/>
</svg>
