<svg width="59" height="43" viewBox="0 0 59 43" fill="none" xmlns="http://www.w3.org/2000/svg">
<rect x="1.03516" y="0.5" width="57" height="41.2022" rx="3.5" fill="white" stroke="#F3F3F3"/>
<path fill-rule="evenodd" clip-rule="evenodd" d="M9.91721 14.7728C9.93769 14.7727 9.96012 14.7723 9.98434 14.7719C10.4606 14.7633 11.6245 14.7424 12.1317 16.5483C12.4907 17.8266 13.0625 19.9205 13.8472 22.8301H14.1668C15.0084 19.7626 15.5865 17.6687 15.9011 16.5483C16.4074 14.7456 17.6276 14.7632 18.2193 14.7718C18.257 14.7724 18.2921 14.7729 18.3243 14.7729L22.4789 14.7729V28.4082H18.2444V20.3727H17.9605L15.6 28.4082H12.4141L10.0536 20.3667H9.76963V28.4082H5.53516V14.7729L9.91721 14.7728ZM28.5596 14.7728V22.8142H28.8974L31.7687 16.2018C32.3261 14.8859 33.5141 14.7728 33.5141 14.7728H37.6118V28.4081H33.2889V20.3666H32.9511L30.136 26.979C29.5786 28.289 28.3344 28.4081 28.3344 28.4081H24.2367V14.7728H28.5596ZM47.9603 24.3464C50.0569 24.3464 51.9505 23.0553 52.5535 21.2525H39.3161V28.4082H43.4269V24.3464H47.9603Z" fill="#40A548"/>
<path d="M48.1596 14.7734H39.1016C39.3171 17.8091 41.795 20.4079 44.36 20.4079H52.8402C53.3296 17.8849 51.6449 14.7734 48.1596 14.7734Z" fill="#1291D0"/>
</svg>
