<svg width="31" height="31" viewBox="0 0 31 31" fill="none" xmlns="http://www.w3.org/2000/svg">
<path d="M11.9482 12.5938H10.8177C10.4947 12.5938 10.4301 12.7458 10.4301 12.9134C10.4301 13.2127 10.8134 14.6975 12.2146 16.6612C13.1488 18.0022 14.465 18.7292 15.6626 18.7292C16.3812 18.7292 16.4701 18.5677 16.4701 18.2896V17.276C16.4701 16.9531 16.5382 16.8887 16.7657 16.8887C16.9334 16.8887 17.2208 16.9725 17.8915 17.6191C18.1197 17.8472 18.2911 18.0379 18.4308 18.1932C18.7602 18.5596 18.9127 18.7292 19.2155 18.7292H20.346C20.669 18.7292 20.8305 18.5677 20.7373 18.2491C20.6354 17.9315 20.2694 17.4708 19.7838 16.9246C19.6502 16.7668 19.4828 16.6028 19.3345 16.4576C19.1904 16.3164 19.0644 16.193 19.0053 16.1104C18.8377 15.8949 18.8856 15.7991 19.0053 15.6075C19.0053 15.6075 20.3826 13.6677 20.5264 13.0092C20.5982 12.7697 20.5264 12.5938 20.1845 12.5938H19.054C18.7666 12.5938 18.6341 12.7458 18.5622 12.9134C18.5622 12.9134 17.9873 14.3143 17.1729 15.2243C16.9094 15.4877 16.7897 15.5716 16.6459 15.5716C16.5741 15.5716 16.4701 15.4877 16.4701 15.2483V13.0092C16.4701 12.7218 16.3867 12.5938 16.1471 12.5938H14.3706C14.191 12.5938 14.083 12.7271 14.083 12.8535C14.083 12.9575 14.1423 13.031 14.218 13.1247C14.3407 13.2765 14.5062 13.4813 14.5322 13.9551V15.6195C14.5322 15.9844 14.4662 16.0505 14.3225 16.0505C13.9393 16.0505 13.0071 14.6433 12.4542 13.0331C12.3458 12.7202 12.2371 12.5938 11.9482 12.5938Z" fill="white"/>
<path fill-rule="evenodd" clip-rule="evenodd" d="M15.5 0C24.0604 0 31 6.93959 31 15.5C31 24.0604 24.0604 31 15.5 31C6.93959 31 0 24.0604 0 15.5C0 6.93959 6.93959 0 15.5 0ZM7.75 15.1771C7.75 11.6759 7.75 9.92534 8.83767 8.83767C9.92534 7.75 11.6759 7.75 15.1771 7.75H15.8229C19.3241 7.75 21.0747 7.75 22.1623 8.83767C23.25 9.92534 23.25 11.6759 23.25 15.1771V15.8229C23.25 19.3241 23.25 21.0747 22.1623 22.1623C21.0747 23.25 19.3241 23.25 15.8229 23.25H15.1771C11.6759 23.25 9.92534 23.25 8.83767 22.1623C7.75 21.0747 7.75 19.3241 7.75 15.8229V15.1771Z" fill="white"/>
</svg>
