<svg width="59" height="43" viewBox="0 0 59 43" fill="none" xmlns="http://www.w3.org/2000/svg">
<rect x="1.03516" y="0.5" width="57" height="41.2022" rx="3.5" fill="white" stroke="#F3F3F3"/>
<path fill-rule="evenodd" clip-rule="evenodd" d="M21.7847 32.5914V34.1496V35.7078H21.1374V35.3294C20.9321 35.61 20.6206 35.7861 20.1971 35.7861C19.3623 35.7861 18.7079 35.1018 18.7079 34.1496C18.7079 33.1981 19.3623 32.5131 20.1971 32.5131C20.6206 32.5131 20.9321 32.6892 21.1374 32.9698V32.5914H21.7847ZM20.2777 33.1519C19.7173 33.1519 19.3744 33.6018 19.3744 34.1496C19.3744 34.6973 19.7173 35.1473 20.2777 35.1473C20.813 35.1473 21.1745 34.7167 21.1745 34.1496C21.1745 33.5824 20.813 33.1519 20.2777 33.1519ZM43.6586 34.1496C43.6586 33.6018 44.0015 33.1519 44.5618 33.1519C45.0979 33.1519 45.4586 33.5824 45.4586 34.1496C45.4586 34.7167 45.0979 35.1473 44.5618 35.1473C44.0015 35.1473 43.6586 34.6973 43.6586 34.1496ZM46.0695 31.34V34.1496V35.7078H45.4215V35.3294C45.2162 35.61 44.9047 35.7861 44.4812 35.7861C43.6465 35.7861 42.992 35.1018 42.992 34.1496C42.992 33.1981 43.6465 32.5131 44.4812 32.5131C44.9047 32.5131 45.2162 32.6892 45.4215 32.9698V31.34H46.0695ZM29.8195 33.1198C30.2365 33.1198 30.5046 33.3936 30.573 33.8757H29.0282C29.0974 33.4257 29.3583 33.1198 29.8195 33.1198ZM28.3495 34.1496C28.3495 33.178 28.9598 32.5131 29.8323 32.5131C30.6664 32.5131 31.2395 33.178 31.246 34.1496C31.246 34.2406 31.2395 34.3257 31.2331 34.41H29.0225C29.1159 34.9712 29.4958 35.1735 29.9129 35.1735C30.2116 35.1735 30.5295 35.0555 30.779 34.8473L31.0963 35.3496C30.7348 35.669 30.3242 35.7861 29.8758 35.7861C28.9847 35.7861 28.3495 35.1406 28.3495 34.1496ZM37.6483 34.1496C37.6483 33.6018 37.9912 33.1519 38.5515 33.1519C39.0869 33.1519 39.4483 33.5824 39.4483 34.1496C39.4483 34.7167 39.0869 35.1473 38.5515 35.1473C37.9912 35.1473 37.6483 34.6973 37.6483 34.1496ZM40.0586 32.5914V34.1496V35.7078H39.4113V35.3294C39.2052 35.61 38.8944 35.7861 38.471 35.7861C37.6362 35.7861 36.9818 35.1018 36.9818 34.1496C36.9818 33.1981 37.6362 32.5131 38.471 32.5131C38.8944 32.5131 39.2052 32.6892 39.4113 32.9698V32.5914H40.0586ZM33.9927 34.1496C33.9927 35.0951 34.6214 35.7861 35.5809 35.7861C36.0293 35.7861 36.328 35.6817 36.6517 35.4145L36.3409 34.8667C36.0978 35.0496 35.8426 35.1473 35.5617 35.1473C35.0449 35.1406 34.6649 34.7496 34.6649 34.1496C34.6649 33.5496 35.0449 33.1586 35.5617 33.1519C35.8426 33.1519 36.0978 33.2496 36.3409 33.4324L36.6517 32.8847C36.328 32.6175 36.0293 32.5131 35.5809 32.5131C34.6214 32.5131 33.9927 33.2041 33.9927 34.1496ZM41.5533 32.9698C41.7216 32.6959 41.9647 32.5131 42.3382 32.5131C42.4694 32.5131 42.6562 32.5392 42.7994 32.5981L42.5998 33.2369C42.463 33.178 42.3261 33.1586 42.1949 33.1586C41.7715 33.1586 41.5598 33.4451 41.5598 33.9608V35.7078L40.9117 35.7078V32.5914H41.5533V32.9698ZM24.9862 32.8392C24.6746 32.6243 24.2455 32.5131 23.7721 32.5131C23.0179 32.5131 22.5324 32.8914 22.5324 33.5108C22.5324 34.019 22.8939 34.3324 23.5597 34.4302L23.8655 34.4757C24.2205 34.5279 24.3881 34.6257 24.3881 34.8018C24.3881 35.0429 24.1514 35.1802 23.7094 35.1802C23.261 35.1802 22.9373 35.0302 22.7192 34.8541L22.4141 35.3817C22.7691 35.6555 23.2175 35.7861 23.703 35.7861C24.5627 35.7861 25.061 35.3623 25.061 34.769C25.061 34.2212 24.6689 33.9347 24.0209 33.8369L23.7158 33.7906C23.4356 33.7518 23.2111 33.6936 23.2111 33.4847C23.2111 33.2563 23.4228 33.1198 23.7778 33.1198C24.1578 33.1198 24.5256 33.2698 24.706 33.3869L24.9862 32.8392ZM32.5541 32.9698C32.7216 32.6959 32.9647 32.5131 33.3383 32.5131C33.4694 32.5131 33.6562 32.5392 33.7995 32.5981L33.5999 33.2369C33.463 33.178 33.3261 33.1586 33.195 33.1586C32.7715 33.1586 32.5598 33.4451 32.5598 33.9608V35.7078H31.9125V32.5914H32.5541V32.9698ZM27.8141 32.5914H26.7555V31.6459H26.101V32.5914H25.4972V33.2108H26.101V34.6324C26.101 35.3555 26.3691 35.7861 27.1347 35.7861C27.4156 35.7861 27.7392 35.6951 27.9445 35.5451L27.7578 34.9645C27.5646 35.0817 27.3528 35.1406 27.1846 35.1406C26.861 35.1406 26.7555 34.9317 26.7555 34.619V33.2108H27.8141V32.5914ZM18.1354 33.7518V35.7078H17.481V33.9735C17.481 33.4451 17.2693 33.1519 16.8273 33.1519C16.3974 33.1519 16.0988 33.4392 16.0988 33.9802V35.7078H15.4443V33.9735C15.4443 33.4451 15.2269 33.1519 14.797 33.1519C14.3543 33.1519 14.0678 33.4392 14.0678 33.9802V35.7078H13.4141V32.5914H14.0621V32.9757C14.3052 32.6108 14.616 32.5131 14.9339 32.5131C15.3887 32.5131 15.7124 32.722 15.9177 33.0675C16.1921 32.6302 16.5842 32.5063 16.9642 32.5131C17.687 32.5198 18.1354 33.0153 18.1354 33.7518Z" fill="#231F20"/>
<path d="M34.5801 27.2962H24.7695V8.83984H34.5801V27.2962Z" fill="#FF5F00"/>
<path d="M25.3935 18.0678C25.3935 14.3239 27.068 10.9889 29.6757 8.83967C27.7688 7.26806 25.3621 6.33002 22.7465 6.33002C16.5545 6.33002 11.5352 11.5851 11.5352 18.0678C11.5352 24.5505 16.5545 29.8057 22.7465 29.8057C25.3621 29.8057 27.7688 28.8676 29.6757 27.296C27.068 25.1468 25.3935 21.8118 25.3935 18.0678Z" fill="#EB001B"/>
<path d="M47.817 18.0678C47.817 24.5505 42.7977 29.8057 36.6056 29.8057C33.9901 29.8057 31.5834 28.8676 29.6758 27.296C32.2842 25.1468 33.9587 21.8118 33.9587 18.0678C33.9587 14.3239 32.2842 10.9889 29.6758 8.83967C31.5834 7.26806 33.9901 6.33002 36.6056 6.33002C42.7977 6.33002 47.817 11.5851 47.817 18.0678Z" fill="#F79E1B"/>
</svg>
