<svg width="59" height="43" viewBox="0 0 59 43" fill="none" xmlns="http://www.w3.org/2000/svg">
<rect x="1.03516" y="0.5" width="57" height="41.2022" rx="3.5" fill="white" stroke="#F3F3F3"/>
<path d="M26.2873 28.9434H22.4258L24.841 14.1719H28.7023L26.2873 28.9434Z" fill="#15195A"/>
<path d="M40.2865 14.5332C39.5249 14.2343 38.3168 13.9043 36.8231 13.9043C33.0097 13.9043 30.3244 15.9156 30.3079 18.7912C30.2763 20.9129 32.2306 22.0913 33.6922 22.7987C35.1862 23.5215 35.694 23.9934 35.694 24.6377C35.6788 25.6273 34.4868 26.0834 33.375 26.0834C31.8334 26.0834 31.0073 25.8483 29.752 25.2977L29.2435 25.0617L28.7031 28.3776C29.6088 28.7857 31.2774 29.1478 33.0097 29.1637C37.0615 29.1637 39.6993 27.1835 39.7305 24.1191C39.746 22.4375 38.714 21.1491 36.4892 20.0962C35.1387 19.4203 34.3115 18.9646 34.3115 18.2731C34.3274 17.6444 35.0111 17.0005 36.5357 17.0005C37.791 16.9689 38.7134 17.2674 39.4121 17.5661L39.7614 17.7229L40.2865 14.5332Z" fill="#15195A"/>
<path fill-rule="evenodd" clip-rule="evenodd" d="M47.1954 14.1719H50.1823L53.2975 28.9432H49.7222C49.7222 28.9432 49.3723 27.246 49.2614 26.7274H44.3036C44.1602 27.12 43.4931 28.9432 43.4931 28.9432H39.4414L45.1771 15.3975C45.5746 14.4388 46.2743 14.1719 47.1954 14.1719ZM46.9575 19.5774C46.9575 19.5774 45.7338 22.8618 45.4158 23.7104H48.6255C48.4667 22.9718 47.7354 19.436 47.7354 19.436L47.4656 18.1632C47.3519 18.491 47.1876 18.9416 47.0767 19.2455C47.0016 19.4515 46.951 19.5902 46.9575 19.5774Z" fill="#15195A"/>
<path fill-rule="evenodd" clip-rule="evenodd" d="M5.69247 14.1719H11.9052C12.7473 14.203 13.4306 14.4701 13.653 15.4136L15.003 22.1998C15.0032 22.2004 15.0034 22.2011 15.0036 22.2018L15.4169 24.2446L19.1985 14.1719H23.2818L17.2122 28.9277H13.1288L9.68702 16.0926C8.4995 15.4059 7.14421 14.8536 5.62891 14.4703L5.69247 14.1719Z" fill="#15195A"/>
</svg>
