<svg width="278" height="296" viewBox="0 0 278 296" fill="none" xmlns="http://www.w3.org/2000/svg">
<path d="M31.6618 43.6923L37.4185 61.4574L75.7964 79.7025L124.248 73.7008V54.9755L88.7489 33.1294H145.116V54.9755L150.393 70.5799L203.883 54.9755L238.423 27.6078V3.60102L248.257 25.4472L258.571 0V25.4472L278 8.88251L264.568 35.0499L211.079 73.7008L170.062 85.2241L179.896 177.17L189.491 256.152L215.876 273.197H196.207V290.482L185.653 276.078L184.454 295.764L173.42 265.275L166.944 209.579L148.954 162.766L112.975 200.937L90.428 265.275L75.0768 291.442V273.917L51.8102 283.28L68.6005 265.275L49.6514 255.912H79.874L91.8671 193.015L115.374 147.402V90.0254L72.1984 94.3467L0 67.4591L20.3883 63.1378L16.0708 53.055L29.503 60.257L31.6618 43.6923Z" fill="#28D824"/>
<path d="M135.892 40.8559C135.892 42.3275 134.699 43.5205 133.227 43.5205C131.755 43.5205 130.562 42.3275 130.562 40.8559C130.562 39.3844 131.755 38.1914 133.227 38.1914C134.699 38.1914 135.892 39.3844 135.892 40.8559Z" fill="black"/>
<path d="M238.616 182.373L171.373 148.325L166.09 167.987L229.73 206.59L278 274.447L238.616 182.373Z" fill="#28D824"/>
<path d="M79.5 73L192 53L200.5 85.5L180.5 89L192 142.5L98.5 150L108 102L79.5 107V73Z" fill="black" stroke="url(#paint0_linear_169_9600)" stroke-linecap="round"/>
<path d="M129.758 82.9722C129.958 82.9277 130.178 82.8943 130.418 82.872C130.657 82.8442 130.896 82.8303 131.136 82.8303C131.392 82.8303 131.642 82.8553 131.887 82.9054C132.138 82.95 132.36 83.0418 132.555 83.181C132.75 83.3202 132.909 83.5178 133.031 83.7739C133.154 84.0244 133.215 84.3529 133.215 84.7593C133.215 85.1267 133.162 85.4385 133.056 85.6945C132.956 85.9506 132.82 86.1594 132.647 86.3208C132.475 86.4823 132.274 86.5992 132.046 86.6716C131.823 86.7439 131.592 86.7801 131.353 86.7801C131.331 86.7801 131.294 86.7801 131.244 86.7801C131.194 86.7801 131.141 86.7801 131.086 86.7801C131.03 86.7746 130.974 86.769 130.919 86.7634C130.868 86.7578 130.832 86.7523 130.81 86.7467V88.7592H129.758V82.9722ZM130.81 85.8031C130.843 85.8142 130.905 85.8254 130.994 85.8365C131.088 85.8421 131.152 85.8448 131.186 85.8448C131.308 85.8448 131.425 85.8281 131.536 85.7947C131.648 85.7613 131.745 85.7057 131.829 85.6277C131.918 85.5442 131.987 85.4329 132.038 85.2937C132.088 85.149 132.113 84.968 132.113 84.7509C132.113 84.5672 132.088 84.4113 132.038 84.2833C131.993 84.1552 131.929 84.055 131.845 83.9827C131.768 83.9047 131.676 83.8491 131.57 83.8157C131.464 83.7822 131.353 83.7655 131.236 83.7655C131.063 83.7655 130.921 83.7795 130.81 83.8073V85.8031Z" fill="white"/>
<path d="M135.554 87.4398H134.176L133.834 88.7592H132.79L134.485 82.872H135.312L137.016 88.7592H135.913L135.554 87.4398ZM134.402 86.5714H135.371L135.037 85.2102L134.903 84.2916H134.869L134.728 85.2186L134.402 86.5714Z" fill="white"/>
<path d="M137.374 88.7592V82.9138H138.427V87.7905H139.42V82.9138H140.473V87.7905H141.466V82.9138H142.518V88.7592H137.374Z" fill="white"/>
<path d="M145.918 86.2874H144.323V88.7592H143.27V82.9138H144.323V85.3188H145.918V82.9138H146.97V88.7592H145.918V86.2874Z" fill="white"/>
<path d="M147.723 82.9722C147.923 82.9277 148.143 82.8943 148.383 82.872C148.622 82.8442 148.862 82.8303 149.101 82.8303C149.357 82.8303 149.608 82.8553 149.852 82.9054C150.103 82.95 150.326 83.0418 150.521 83.181C150.715 83.3202 150.874 83.5178 150.996 83.7739C151.119 84.0244 151.18 84.3529 151.18 84.7593C151.18 85.1267 151.127 85.4385 151.022 85.6945C150.921 85.9506 150.785 86.1594 150.612 86.3208C150.44 86.4823 150.239 86.5992 150.011 86.6716C149.788 86.7439 149.557 86.7801 149.318 86.7801C149.296 86.7801 149.26 86.7801 149.209 86.7801C149.159 86.7801 149.106 86.7801 149.051 86.7801C148.995 86.7746 148.939 86.769 148.884 86.7634C148.834 86.7578 148.797 86.7523 148.775 86.7467V88.7592H147.723V82.9722ZM148.775 85.8031C148.809 85.8142 148.87 85.8254 148.959 85.8365C149.054 85.8421 149.118 85.8448 149.151 85.8448C149.273 85.8448 149.39 85.8281 149.502 85.7947C149.613 85.7613 149.71 85.7057 149.794 85.6277C149.883 85.5442 149.953 85.4329 150.003 85.2937C150.053 85.149 150.078 84.968 150.078 84.7509C150.078 84.5672 150.053 84.4113 150.003 84.2833C149.958 84.1552 149.894 84.055 149.811 83.9827C149.733 83.9047 149.641 83.8491 149.535 83.8157C149.429 83.7822 149.318 83.7655 149.201 83.7655C149.029 83.7655 148.887 83.7795 148.775 83.8073V85.8031Z" fill="white"/>
<path d="M151.504 85.8365C151.504 84.8456 151.674 84.0912 152.013 83.5735C152.353 83.0557 152.871 82.7969 153.566 82.7969C153.928 82.7969 154.24 82.8692 154.502 83.014C154.763 83.1532 154.978 83.3564 155.145 83.6236C155.312 83.8852 155.434 84.2053 155.512 84.5839C155.596 84.9569 155.637 85.3744 155.637 85.8365C155.637 86.8274 155.462 87.5818 155.111 88.0995C154.766 88.6173 154.251 88.8761 153.566 88.8761C153.199 88.8761 152.884 88.8065 152.623 88.6674C152.367 88.5226 152.155 88.3194 151.988 88.0578C151.821 87.7905 151.699 87.4704 151.621 87.0974C151.543 86.7189 151.504 86.2986 151.504 85.8365ZM152.606 85.8365C152.606 86.1316 152.623 86.4071 152.656 86.6632C152.69 86.9137 152.745 87.1308 152.823 87.3146C152.901 87.4983 152.999 87.643 153.115 87.7488C153.238 87.8546 153.388 87.9075 153.566 87.9075C153.889 87.9075 154.131 87.7432 154.293 87.4148C154.454 87.0863 154.535 86.5602 154.535 85.8365C154.535 85.5526 154.518 85.2854 154.485 85.0348C154.452 84.7788 154.396 84.5589 154.318 84.3751C154.246 84.1859 154.148 84.0383 154.026 83.9326C153.903 83.8212 153.75 83.7655 153.566 83.7655C152.926 83.7655 152.606 84.4559 152.606 85.8365Z" fill="white"/>
<path d="M158.636 83.8825H157.751C157.712 84.9402 157.659 85.8254 157.592 86.538C157.525 87.245 157.397 87.785 157.208 88.158C157.141 88.2916 157.063 88.4029 156.974 88.492C156.891 88.5755 156.804 88.6423 156.715 88.6924C156.632 88.7369 156.545 88.7676 156.456 88.7843C156.367 88.8065 156.287 88.8177 156.214 88.8177C156.097 88.8177 155.994 88.8065 155.905 88.7843C155.816 88.7676 155.733 88.7397 155.655 88.7008L155.772 87.7488C155.872 87.7878 155.972 87.7905 156.072 87.7571C156.172 87.7182 156.256 87.6263 156.323 87.4816C156.39 87.3591 156.448 87.1809 156.498 86.9471C156.548 86.7077 156.59 86.4016 156.623 86.0286C156.662 85.6556 156.69 85.213 156.707 84.7008C156.729 84.1886 156.746 83.593 156.757 82.9138H159.688V88.7592H158.636V83.8825Z" fill="white"/>
<path d="M162.95 83.8825H162.065C162.026 84.9402 161.973 85.8254 161.906 86.538C161.839 87.245 161.711 87.785 161.522 88.158C161.455 88.2916 161.377 88.4029 161.288 88.492C161.205 88.5755 161.118 88.6423 161.029 88.6924C160.946 88.7369 160.859 88.7676 160.77 88.7843C160.681 88.8065 160.601 88.8177 160.528 88.8177C160.411 88.8177 160.308 88.8065 160.219 88.7843C160.13 88.7676 160.047 88.7397 159.969 88.7008L160.086 87.7488C160.186 87.7878 160.286 87.7905 160.386 87.7571C160.486 87.7182 160.57 87.6263 160.637 87.4816C160.704 87.3591 160.762 87.1809 160.812 86.9471C160.862 86.7077 160.904 86.4016 160.937 86.0286C160.976 85.6556 161.004 85.213 161.021 84.7008C161.043 84.1886 161.06 83.593 161.071 82.9138H164.002V88.7592H162.95V83.8825Z" fill="white"/>
<path fill-rule="evenodd" clip-rule="evenodd" d="M127.593 76.4378L117.274 82.8102L117.909 83.8386L127.593 77.8584L127.593 76.4378Z" fill="white"/>
<path d="M126.166 84.5299C126.166 83.5285 125.354 82.7168 124.353 82.7168H121.895C120.894 82.7168 120.082 83.5285 120.082 84.5299V86.9876C120.082 87.989 120.894 88.8007 121.895 88.8007H124.353C125.354 88.8007 126.166 87.989 126.166 86.9876V84.5299Z" fill="#FF9EC7"/>
<path fill-rule="evenodd" clip-rule="evenodd" d="M121.895 83.3212H124.353C125.02 83.3212 125.562 83.8623 125.562 84.5299V86.9876C125.562 87.6552 125.02 88.1964 124.353 88.1964H121.895C121.228 88.1964 120.686 87.6552 120.686 86.9876V84.5299C120.686 83.8623 121.228 83.3212 121.895 83.3212ZM124.353 82.7168C125.354 82.7168 126.166 83.5285 126.166 84.5299V86.9876C126.166 87.989 125.354 88.8007 124.353 88.8007H121.895C120.894 88.8007 120.082 87.989 120.082 86.9876V84.5299C120.082 83.5285 120.894 82.7168 121.895 82.7168H124.353Z" fill="#D23577"/>
<path d="M114 84.5299C114 83.5285 114.812 82.7168 115.813 82.7168H118.271C119.272 82.7168 120.084 83.5285 120.084 84.5299V86.9876C120.084 87.989 119.272 88.8007 118.271 88.8007H115.813C114.812 88.8007 114 87.989 114 86.9876V84.5299Z" fill="#5D8ACE"/>
<path fill-rule="evenodd" clip-rule="evenodd" d="M118.271 83.3212H115.813C115.146 83.3212 114.604 83.8623 114.604 84.5299V86.9876C114.604 87.6552 115.146 88.1964 115.813 88.1964H118.271C118.938 88.1964 119.48 87.6552 119.48 86.9876V84.5299C119.48 83.8623 118.938 83.3212 118.271 83.3212ZM115.813 82.7168C114.812 82.7168 114 83.5285 114 84.5299V86.9876C114 87.989 114.812 88.8007 115.813 88.8007H118.271C119.272 88.8007 120.084 87.989 120.084 86.9876V84.5299C120.084 83.5285 119.272 82.7168 118.271 82.7168H115.813Z" fill="#113D81"/>
<path d="M119.277 85.3358C119.277 85.5806 119.079 85.779 118.834 85.779C118.589 85.779 118.391 85.5806 118.391 85.3358C118.391 85.091 118.589 84.8926 118.834 84.8926C119.079 84.8926 119.277 85.091 119.277 85.3358Z" fill="#0A2754"/>
<path fill-rule="evenodd" clip-rule="evenodd" d="M115.609 85.6508C115.914 84.7082 116.042 83.7458 115.974 83.284L117.113 83.1201C117.218 83.837 117.029 84.9964 116.705 85.9986C116.54 86.5114 116.328 87.0187 116.075 87.4393C115.833 87.8414 115.504 88.2476 115.069 88.4385L114.604 87.3955C114.706 87.3506 114.881 87.197 115.086 86.855C115.281 86.5315 115.461 86.1105 115.609 85.6508Z" fill="#113D81"/>
<path d="M120.889 85.3358C120.889 85.5806 121.087 85.779 121.332 85.779C121.577 85.779 121.775 85.5806 121.775 85.3358C121.775 85.091 121.577 84.8926 121.332 84.8926C121.087 84.8926 120.889 85.091 120.889 85.3358Z" fill="#81224A"/>
<path fill-rule="evenodd" clip-rule="evenodd" d="M124.658 85.6508C124.354 84.7082 124.226 83.7458 124.294 83.284L123.155 83.1201C123.05 83.837 123.239 84.9964 123.562 85.9986C123.728 86.5114 123.94 87.0187 124.193 87.4393C124.435 87.8414 124.763 88.2476 125.198 88.4385L125.664 87.3955C125.562 87.3506 125.387 87.197 125.181 86.855C124.987 86.5315 124.807 86.1105 124.658 85.6508Z" fill="#D23577"/>
<path fill-rule="evenodd" clip-rule="evenodd" d="M119.593 87.762C118.505 87.6576 117.981 86.9565 117.664 86.3206L118.205 86.0508C118.481 86.6046 118.865 87.0849 119.651 87.1604L119.593 87.762Z" fill="#113D81"/>
<path fill-rule="evenodd" clip-rule="evenodd" d="M120.386 87.762C121.473 87.6576 121.997 86.9565 122.314 86.3206L121.774 86.0508C121.497 86.6046 121.114 87.0849 120.328 87.1604L120.386 87.762Z" fill="#D23577"/>
<path fill-rule="evenodd" clip-rule="evenodd" d="M127.59 84.1848L115.985 91.326L116.62 92.3544L127.59 85.6041L127.59 84.1848Z" fill="white"/>
<defs>
<linearGradient id="paint0_linear_169_9600" x1="130.018" y1="53" x2="147.343" y2="162.891" gradientUnits="userSpaceOnUse">
<stop stop-color="#2563DA"/>
<stop offset="1" stop-color="#0F3D98"/>
</linearGradient>
</defs>
</svg>
