<svg width="188" height="188" viewBox="0 0 188 188" fill="none" xmlns="http://www.w3.org/2000/svg">
<circle cx="94" cy="94" r="94" fill="url(#paint0_linear_651_4608)"/>
<circle cx="94" cy="94" r="94" fill="url(#paint1_linear_651_4608)"/>
<path d="M48.4088 97.935H47.6138L47.4338 96H41.6138L41.4338 97.935H40.6388V94.965H41.5088C41.5688 94.855 41.6638 94.595 41.7938 94.185C41.9338 93.775 42.0688 93.19 42.1988 92.43C42.3388 91.66 42.4588 90.705 42.5588 89.565C42.6588 88.415 42.7038 87.06 42.6938 85.5H47.3138V94.965H48.4088V97.935ZM46.1888 94.965V86.535H43.7738C43.7238 88.745 43.5938 90.535 43.3838 91.905C43.1738 93.275 42.9438 94.295 42.6938 94.965H46.1888ZM49.105 90.75C49.105 88.97 49.39 87.62 49.96 86.7C50.53 85.78 51.4 85.32 52.57 85.32C53.2 85.32 53.735 85.45 54.175 85.71C54.615 85.96 54.97 86.32 55.24 86.79C55.52 87.26 55.725 87.83 55.855 88.5C55.985 89.17 56.05 89.92 56.05 90.75C56.05 92.53 55.76 93.88 55.18 94.8C54.61 95.72 53.74 96.18 52.57 96.18C51.95 96.18 51.42 96.055 50.98 95.805C50.54 95.545 50.18 95.18 49.9 94.71C49.62 94.24 49.415 93.67 49.285 93C49.165 92.33 49.105 91.58 49.105 90.75ZM50.29 90.75C50.29 91.34 50.33 91.9 50.41 92.43C50.5 92.96 50.635 93.425 50.815 93.825C50.995 94.225 51.23 94.545 51.52 94.785C51.81 95.025 52.16 95.145 52.57 95.145C53.32 95.145 53.89 94.785 54.28 94.065C54.67 93.345 54.865 92.24 54.865 90.75C54.865 90.17 54.82 89.615 54.73 89.085C54.65 88.555 54.52 88.09 54.34 87.69C54.16 87.28 53.925 86.955 53.635 86.715C53.345 86.475 52.99 86.355 52.57 86.355C51.83 86.355 51.265 86.715 50.875 87.435C50.485 88.155 50.29 89.26 50.29 90.75ZM57.6524 85.5H62.3474V86.535H58.7774V89.76C58.9174 89.73 59.0874 89.7 59.2874 89.67C59.4974 89.64 59.6974 89.625 59.8874 89.625C60.3074 89.625 60.7024 89.675 61.0724 89.775C61.4424 89.865 61.7624 90.025 62.0324 90.255C62.3124 90.485 62.5324 90.8 62.6924 91.2C62.8524 91.59 62.9324 92.085 62.9324 92.685C62.9324 93.285 62.8524 93.805 62.6924 94.245C62.5424 94.675 62.3274 95.03 62.0474 95.31C61.7774 95.58 61.4524 95.785 61.0724 95.925C60.6924 96.055 60.2724 96.12 59.8124 96.12C59.6724 96.12 59.5074 96.115 59.3174 96.105C59.1374 96.105 58.9474 96.095 58.7474 96.075C58.5574 96.065 58.3624 96.045 58.1624 96.015C57.9724 95.985 57.8024 95.95 57.6524 95.91V85.5ZM58.7774 94.995C58.8874 95.035 59.0524 95.06 59.2724 95.07C59.5024 95.08 59.7174 95.085 59.9174 95.085C60.4574 95.085 60.8974 94.91 61.2374 94.56C61.5774 94.21 61.7474 93.655 61.7474 92.895C61.7474 92.415 61.6924 92.03 61.5824 91.74C61.4824 91.44 61.3424 91.21 61.1624 91.05C60.9824 90.89 60.7674 90.785 60.5174 90.735C60.2774 90.685 60.0174 90.66 59.7374 90.66C59.6674 90.66 59.5874 90.665 59.4974 90.675C59.4074 90.685 59.3124 90.695 59.2124 90.705C59.1224 90.715 59.0374 90.73 58.9574 90.75C58.8774 90.77 58.8174 90.785 58.7774 90.795V94.995ZM68.3671 93.06H65.3971L64.5571 96H63.4471L66.6121 85.335H67.2271L70.3921 96H69.2221L68.3671 93.06ZM65.6971 92.055H68.0971L67.1821 88.815L66.8971 87.24H66.8671L66.5821 88.845L65.6971 92.055ZM76.6269 87.885C76.6269 88.145 76.5969 88.405 76.5369 88.665C76.4769 88.925 76.3819 89.17 76.2519 89.4C76.1219 89.63 75.9569 89.835 75.7569 90.015C75.5669 90.195 75.3319 90.33 75.0519 90.42V90.48C75.2919 90.53 75.5219 90.615 75.7419 90.735C75.9619 90.845 76.1569 91.005 76.3269 91.215C76.4969 91.415 76.6319 91.665 76.7319 91.965C76.8319 92.255 76.8819 92.605 76.8819 93.015C76.8819 93.555 76.7969 94.025 76.6269 94.425C76.4569 94.815 76.2219 95.135 75.9219 95.385C75.6319 95.635 75.2919 95.82 74.9019 95.94C74.5219 96.06 74.1169 96.12 73.6869 96.12C73.5469 96.12 73.3819 96.12 73.1919 96.12C73.0119 96.12 72.8169 96.11 72.6069 96.09C72.3969 96.08 72.1869 96.06 71.9769 96.03C71.7769 96.01 71.5919 95.975 71.4219 95.925V85.59C71.7219 85.53 72.0719 85.48 72.4719 85.44C72.8819 85.4 73.3219 85.38 73.7919 85.38C74.1319 85.38 74.4719 85.415 74.8119 85.485C75.1519 85.545 75.4569 85.665 75.7269 85.845C75.9969 86.025 76.2119 86.28 76.3719 86.61C76.5419 86.93 76.6269 87.355 76.6269 87.885ZM73.7769 95.085C74.0469 95.085 74.2969 95.045 74.5269 94.965C74.7569 94.875 74.9569 94.745 75.1269 94.575C75.3069 94.405 75.4469 94.2 75.5469 93.96C75.6469 93.71 75.6969 93.42 75.6969 93.09C75.6969 92.68 75.6319 92.35 75.5019 92.1C75.3819 91.84 75.2219 91.64 75.0219 91.5C74.8219 91.36 74.5919 91.265 74.3319 91.215C74.0819 91.165 73.8219 91.14 73.5519 91.14H72.5469V94.98C72.6069 95 72.6819 95.015 72.7719 95.025C72.8719 95.035 72.9769 95.045 73.0869 95.055C73.2069 95.065 73.3269 95.075 73.4469 95.085C73.5669 95.085 73.6769 95.085 73.7769 95.085ZM73.1619 90.165C73.3019 90.165 73.4619 90.16 73.6419 90.15C73.8219 90.14 73.9719 90.125 74.0919 90.105C74.4619 89.955 74.7769 89.715 75.0369 89.385C75.3069 89.045 75.4419 88.63 75.4419 88.14C75.4419 87.81 75.3969 87.535 75.3069 87.315C75.2169 87.085 75.0919 86.905 74.9319 86.775C74.7819 86.645 74.6019 86.555 74.3919 86.505C74.1819 86.445 73.9619 86.415 73.7319 86.415C73.4719 86.415 73.2369 86.425 73.0269 86.445C72.8169 86.455 72.6569 86.47 72.5469 86.49V90.165H73.1619ZM83.5975 89.13L83.6875 87.75H83.6425L83.1175 89.16L79.2325 96H78.4825V85.5H79.6075V92.475L79.5025 93.825H79.5625L80.0875 92.415L83.9875 85.5H84.7225V96H83.5975V89.13ZM92.1766 86.535H89.5966V96H88.4716V86.535H85.8916V85.5H92.1766V86.535ZM93.3506 85.5H94.4756V89.58C94.5956 89.55 94.7806 89.52 95.0306 89.49C95.2906 89.46 95.5156 89.445 95.7056 89.445C96.1056 89.445 96.4856 89.495 96.8456 89.595C97.2156 89.685 97.5406 89.85 97.8206 90.09C98.1006 90.33 98.3206 90.655 98.4806 91.065C98.6506 91.465 98.7356 91.975 98.7356 92.595C98.7356 93.205 98.6556 93.73 98.4956 94.17C98.3456 94.61 98.1256 94.975 97.8356 95.265C97.5456 95.555 97.1956 95.77 96.7856 95.91C96.3756 96.05 95.9156 96.12 95.4056 96.12C95.2956 96.12 95.1556 96.115 94.9856 96.105C94.8156 96.105 94.6356 96.095 94.4456 96.075C94.2656 96.065 94.0756 96.045 93.8756 96.015C93.6856 95.995 93.5106 95.96 93.3506 95.91V85.5ZM95.5256 95.085C96.1356 95.085 96.6256 94.89 96.9956 94.5C97.3656 94.11 97.5506 93.51 97.5506 92.7C97.5506 92.27 97.4956 91.915 97.3856 91.635C97.2856 91.345 97.1406 91.115 96.9506 90.945C96.7706 90.775 96.5556 90.655 96.3056 90.585C96.0556 90.515 95.7906 90.48 95.5106 90.48C95.4406 90.48 95.3556 90.485 95.2556 90.495C95.1556 90.505 95.0506 90.515 94.9406 90.525C94.8406 90.535 94.7456 90.55 94.6556 90.57C94.5756 90.59 94.5156 90.605 94.4756 90.615V94.995C94.5956 95.025 94.7506 95.05 94.9406 95.07C95.1406 95.08 95.3356 95.085 95.5256 95.085ZM106.039 94.83C105.899 94.86 105.734 94.88 105.544 94.89C105.354 94.9 105.174 94.905 105.004 94.905C104.614 94.905 104.254 94.83 103.924 94.68C103.604 94.53 103.324 94.29 103.084 93.96C102.844 93.62 102.654 93.19 102.514 92.67C102.384 92.14 102.319 91.5 102.319 90.75C102.319 89.34 102.579 88.27 103.099 87.54C103.629 86.8 104.344 86.43 105.244 86.43C105.354 86.43 105.489 86.435 105.649 86.445C105.819 86.455 105.949 86.47 106.039 86.49V85.2H107.164V86.535C107.304 86.485 107.479 86.455 107.689 86.445C107.899 86.435 108.069 86.43 108.199 86.43C108.589 86.43 108.949 86.515 109.279 86.685C109.609 86.845 109.894 87.095 110.134 87.435C110.374 87.775 110.559 88.21 110.689 88.74C110.819 89.26 110.884 89.88 110.884 90.6C110.884 91.34 110.809 91.98 110.659 92.52C110.509 93.06 110.304 93.505 110.044 93.855C109.784 94.205 109.474 94.47 109.114 94.65C108.764 94.82 108.389 94.905 107.989 94.905C107.899 94.905 107.764 94.9 107.584 94.89C107.404 94.87 107.264 94.84 107.164 94.8V96.3H106.039V94.83ZM108.004 87.405C107.894 87.405 107.749 87.41 107.569 87.42C107.389 87.43 107.244 87.46 107.134 87.51V93.885C107.214 93.905 107.324 93.92 107.464 93.93C107.604 93.93 107.729 93.93 107.839 93.93C108.399 93.93 108.854 93.66 109.204 93.12C109.554 92.57 109.729 91.73 109.729 90.6C109.729 90.12 109.689 89.685 109.609 89.295C109.539 88.905 109.429 88.57 109.279 88.29C109.139 88.01 108.959 87.795 108.739 87.645C108.529 87.485 108.284 87.405 108.004 87.405ZM105.244 93.93C105.334 93.93 105.464 93.93 105.634 93.93C105.814 93.92 105.959 93.89 106.069 93.84V87.465C105.969 87.445 105.849 87.43 105.709 87.42C105.569 87.41 105.444 87.405 105.334 87.405C104.784 87.405 104.334 87.68 103.984 88.23C103.644 88.78 103.474 89.62 103.474 90.75C103.474 91.74 103.624 92.52 103.924 93.09C104.234 93.65 104.674 93.93 105.244 93.93ZM111.991 90.75C111.991 88.97 112.276 87.62 112.846 86.7C113.416 85.78 114.286 85.32 115.456 85.32C116.086 85.32 116.621 85.45 117.061 85.71C117.501 85.96 117.856 86.32 118.126 86.79C118.406 87.26 118.611 87.83 118.741 88.5C118.871 89.17 118.936 89.92 118.936 90.75C118.936 92.53 118.646 93.88 118.066 94.8C117.496 95.72 116.626 96.18 115.456 96.18C114.836 96.18 114.306 96.055 113.866 95.805C113.426 95.545 113.066 95.18 112.786 94.71C112.506 94.24 112.301 93.67 112.171 93C112.051 92.33 111.991 91.58 111.991 90.75ZM113.176 90.75C113.176 91.34 113.216 91.9 113.296 92.43C113.386 92.96 113.521 93.425 113.701 93.825C113.881 94.225 114.116 94.545 114.406 94.785C114.696 95.025 115.046 95.145 115.456 95.145C116.206 95.145 116.776 94.785 117.166 94.065C117.556 93.345 117.751 92.24 117.751 90.75C117.751 90.17 117.706 89.615 117.616 89.085C117.536 88.555 117.406 88.09 117.226 87.69C117.046 87.28 116.811 86.955 116.521 86.715C116.231 86.475 115.876 86.355 115.456 86.355C114.716 86.355 114.151 86.715 113.761 87.435C113.371 88.155 113.176 89.26 113.176 90.75ZM125.516 86.535H122.936V96H121.811V86.535H119.231V85.5H125.516V86.535ZM125.819 90.75C125.819 88.97 126.104 87.62 126.674 86.7C127.244 85.78 128.114 85.32 129.284 85.32C129.914 85.32 130.449 85.45 130.889 85.71C131.329 85.96 131.684 86.32 131.954 86.79C132.234 87.26 132.439 87.83 132.569 88.5C132.699 89.17 132.764 89.92 132.764 90.75C132.764 92.53 132.474 93.88 131.894 94.8C131.324 95.72 130.454 96.18 129.284 96.18C128.664 96.18 128.134 96.055 127.694 95.805C127.254 95.545 126.894 95.18 126.614 94.71C126.334 94.24 126.129 93.67 125.999 93C125.879 92.33 125.819 91.58 125.819 90.75ZM127.004 90.75C127.004 91.34 127.044 91.9 127.124 92.43C127.214 92.96 127.349 93.425 127.529 93.825C127.709 94.225 127.944 94.545 128.234 94.785C128.524 95.025 128.874 95.145 129.284 95.145C130.034 95.145 130.604 94.785 130.994 94.065C131.384 93.345 131.579 92.24 131.579 90.75C131.579 90.17 131.534 89.615 131.444 89.085C131.364 88.555 131.234 88.09 131.054 87.69C130.874 87.28 130.639 86.955 130.349 86.715C130.059 86.475 129.704 86.355 129.284 86.355C128.544 86.355 127.979 86.715 127.589 87.435C127.199 88.155 127.004 89.26 127.004 90.75Z" fill="url(#paint2_linear_651_4608)"/>
<path d="M146 84L146 96" stroke="#DFDFDF"/>
<path d="M140 90L152 90" stroke="#DFDFDF"/>
<defs>
<linearGradient id="paint0_linear_651_4608" x1="94" y1="0" x2="94" y2="188" gradientUnits="userSpaceOnUse">
<stop stop-color="#727272"/>
<stop offset="1" stop-color="#414141"/>
</linearGradient>
<linearGradient id="paint1_linear_651_4608" x1="94" y1="0" x2="94" y2="188" gradientUnits="userSpaceOnUse">
<stop stop-color="#215BCC"/>
<stop offset="1" stop-color="#00308D"/>
</linearGradient>
<linearGradient id="paint2_linear_651_4608" x1="87" y1="81" x2="87" y2="96" gradientUnits="userSpaceOnUse">
<stop stop-color="#F1F1F1"/>
<stop offset="1" stop-color="#CFCFCF"/>
</linearGradient>
</defs>
</svg>
